<svg xmlns="http://www.w3.org/2000/svg" width="800" height="660" viewBox="0 0 800 660" font-family="monospace">
  <defs>
    <pattern id="grid" width="40" height="40" patternUnits="userSpaceOnUse">
      <rect width="40" height="40" fill="#2A2A3A"/>
      <rect width="38" height="38" fill="#2E2E42"/>
    </pattern>
  </defs>

  <!-- outer frame -->
  <rect x="0" y="0" width="800" height="660" fill="#1C1C28"/>
  <rect x="4" y="4" width="792" height="652" fill="#3A3A3A"/>
  <rect x="6" y="6" width="788" height="648" fill="url(#grid)"/>
  <rect x="2" y="2" width="796" height="656" fill="none" stroke="#5A5A5A" stroke-width="2"/>
  <rect x="8" y="8" width="784" height="644" fill="none" stroke="#8A8A8A" stroke-width="2"/>
  <line x1="10" y1="10" x2="790" y2="10" stroke="#B8B8B8" stroke-width="1"/>
  <line x1="10" y1="10" x2="10" y2="650" stroke="#B8B8B8" stroke-width="1"/>

  <!-- header: player icon + name -->
  <rect x="30" y="24" width="20" height="32" fill="#E0B080"/>
  <rect x="30" y="18" width="20" height="6" fill="#5E3C1B"/>
  <rect x="34" y="38" width="12" height="18" fill="#1FB6D8"/>
  <rect x="26" y="34" width="6" height="14" fill="#E6E9EE"/>
  <rect x="48" y="34" width="6" height="14" fill="#E6E9EE"/>
  <rect x="34" y="56" width="6" height="8" fill="#2E8FB8"/>
  <rect x="42" y="56" width="6" height="8" fill="#2E8FB8"/>
  <text x="64" y="38" font-size="22" font-weight="bold" fill="#FCD34D">BRIAN ATMOKO</text>
  <text x="64" y="58" font-size="11" fill="#1FB6D8">EMBEDDED &amp; FULLSTACK ENGINEER</text>
  <rect x="30" y="76" width="740" height="2" fill="#5A5A5A"/>

  <!-- TENTANG SAYA -->
  <rect x="30" y="96" width="14" height="14" fill="#5FB34A"/>
  <rect x="28" y="94" width="18" height="18" fill="none" stroke="#3A6E2C" stroke-width="2"/>
  <text x="52" y="108" font-size="13" font-weight="bold" fill="#5FB34A">TENTANG SAYA</text>
  <text x="30" y="130" font-size="11" fill="#B0C8E0">Merancang sistem embedded, firmware, dan perangkat lunak.</text>
  <text x="30" y="146" font-size="11" fill="#B0C8E0">Dari sensor hingga cloud, dari PCB hingga dashboard.</text>
  <text x="30" y="162" font-size="11" fill="#B0C8E0">Lebih dari 8 tahun membangun di setiap lapisan teknologi.</text>

  <!-- SPESIALISASI -->
  <rect x="30" y="186" width="14" height="14" fill="#3A6E2C"/>
  <rect x="28" y="184" width="18" height="18" fill="none" stroke="#2A4E1C" stroke-width="2"/>
  <text x="52" y="198" font-size="13" font-weight="bold" fill="#87CEEB">SPESIALISASI</text>
  <rect x="30" y="210" width="100" height="22" fill="#23233A" stroke="#4A4A5A" stroke-width="2"/>
  <rect x="32" y="212" width="96" height="18" fill="#2E8FB8"/><text x="80" y="226" text-anchor="middle" font-size="9" fill="#FFFFFF">Drone Systems</text>
  <rect x="138" y="210" width="90" height="22" fill="#23233A" stroke="#4A4A5A" stroke-width="2"/>
  <rect x="140" y="212" width="86" height="18" fill="#5FB34A"/><text x="183" y="226" text-anchor="middle" font-size="9" fill="#FFFFFF">Digital ECU</text>
  <rect x="236" y="210" width="100" height="22" fill="#23233A" stroke="#4A4A5A" stroke-width="2"/>
  <rect x="238" y="212" width="96" height="18" fill="#FCD34D"/><text x="286" y="226" text-anchor="middle" font-size="9" fill="#1C1C28">Elektronika</text>
  <rect x="344" y="210" width="90" height="22" fill="#23233A" stroke="#4A4A5A" stroke-width="2"/>
  <rect x="346" y="212" width="86" height="18" fill="#C51A4A"/><text x="389" y="226" text-anchor="middle" font-size="9" fill="#FFFFFF">Software</text>

  <!-- BAHASA -->
  <rect x="30" y="250" width="14" height="14" fill="#FCD34D"/>
  <rect x="28" y="248" width="18" height="18" fill="none" stroke="#B89B20" stroke-width="2"/>
  <text x="52" y="262" font-size="13" font-weight="bold" fill="#87CEEB">BAHASA FAVORIT</text>
  <rect x="30" y="272" width="100" height="26" fill="#23233A" stroke="#4A4A5A" stroke-width="2"/>
  <rect x="32" y="274" width="96" height="22" fill="#00599C"/><text x="80" y="290" text-anchor="middle" font-size="11" font-weight="bold" fill="#FFFFFF">C++</text>
  <rect x="138" y="272" width="90" height="26" fill="#23233A" stroke="#4A4A5A" stroke-width="2"/>
  <rect x="140" y="274" width="86" height="22" fill="#ED8B00"/><text x="183" y="290" text-anchor="middle" font-size="11" font-weight="bold" fill="#FFFFFF">Java</text>
  <rect x="236" y="272" width="100" height="26" fill="#23233A" stroke="#4A4A5A" stroke-width="2"/>
  <rect x="238" y="274" width="96" height="22" fill="#3776AB"/><text x="286" y="290" text-anchor="middle" font-size="11" font-weight="bold" fill="#FFFFFF">Python</text>
  <rect x="344" y="272" width="100" height="26" fill="#23233A" stroke="#4A4A5A" stroke-width="2"/>
  <rect x="346" y="274" width="96" height="22" fill="#3178C6"/><text x="394" y="290" text-anchor="middle" font-size="11" font-weight="bold" fill="#FFFFFF">JS/TS</text>

  <!-- STACK -->
  <rect x="30" y="316" width="14" height="14" fill="#1FB6D8"/>
  <rect x="28" y="314" width="18" height="18" fill="none" stroke="#0F7A9E" stroke-width="2"/>
  <text x="52" y="328" font-size="13" font-weight="bold" fill="#87CEEB">STACK</text>
  <rect x="30" y="340" width="90" height="24" fill="#23233A" stroke="#4A4A5A" stroke-width="2"/>
  <rect x="32" y="342" width="86" height="20" fill="#03234B"/><text x="75" y="356" text-anchor="middle" font-size="9" fill="#FFFFFF">STM32</text>
  <rect x="128" y="340" width="90" height="24" fill="#23233A" stroke="#4A4A5A" stroke-width="2"/>
  <rect x="130" y="342" width="86" height="20" fill="#00979D"/><text x="173" y="356" text-anchor="middle" font-size="9" fill="#FFFFFF">Arduino</text>
  <rect x="226" y="340" width="90" height="24" fill="#23233A" stroke="#4A4A5A" stroke-width="2"/>
  <rect x="228" y="342" width="86" height="20" fill="#C51A4A"/><text x="271" y="356" text-anchor="middle" font-size="9" fill="#FFFFFF">Rasp. Pi</text>
  <rect x="30" y="368" width="90" height="24" fill="#23233A" stroke="#4A4A5A" stroke-width="2"/>
  <rect x="32" y="370" width="86" height="20" fill="#41CD52"/><text x="75" y="384" text-anchor="middle" font-size="9" fill="#FFFFFF">Qt</text>
  <rect x="128" y="368" width="90" height="24" fill="#23233A" stroke="#4A4A5A" stroke-width="2"/>
  <rect x="130" y="370" width="86" height="20" fill="#FF6F00"/><text x="173" y="384" text-anchor="middle" font-size="9" fill="#FFFFFF">TensorFlow</text>
  <rect x="226" y="368" width="90" height="24" fill="#23233A" stroke="#4A4A5A" stroke-width="2"/>
  <rect x="228" y="370" width="86" height="20" fill="#6A0DAD"/><text x="271" y="384" text-anchor="middle" font-size="9" fill="#FFFFFF">OpenCV</text>

  <!-- GITHUB STATS panel -->
  <rect x="30" y="410" width="740" height="100" fill="#23233A" stroke="#4A4A5A" stroke-width="2"/>
  <rect x="28" y="408" width="744" height="104" fill="none" stroke="#8A8A8A" stroke-width="1" opacity="0.3"/>
  <rect x="42" y="422" width="20" height="20" fill="#1FB6D8"/>
  <rect x="48" y="428" width="8" height="8" fill="#FFFFFF"/>
  <rect x="50" y="414" width="4" height="8" fill="#1FB6D8"/>
  <text x="72" y="438" font-size="13" font-weight="bold" fill="#FCD34D">GITHUB STATS</text>

  <!-- followers -->
  <rect x="42" y="456" width="12" height="12" fill="#5FB34A"/>
  <text x="60" y="466" font-size="11" fill="#A0C0E0">Followers</text>
  <rect x="132" y="454" width="60" height="16" fill="#2A2A3A" stroke="#4A4A5A" stroke-width="1"/>
  <text x="162" y="466" text-anchor="middle" font-size="11" font-weight="bold" fill="#FFFFFF" id="followers">IDR</text>

  <!-- stars -->
  <rect x="220" y="456" width="12" height="12" fill="#FCD34D"/>
  <text x="238" y="466" font-size="11" fill="#A0C0E0">Total Stars</text>
  <rect x="328" y="454" width="60" height="16" fill="#2A2A3A" stroke="#4A4A5A" stroke-width="1"/>
  <text x="358" y="466" text-anchor="middle" font-size="11" font-weight="bold" fill="#FFFFFF" id="stars">IDR</text>

  <!-- streak -->
  <rect x="416" y="456" width="12" height="12" fill="#C51A4A"/>
  <text x="434" y="466" font-size="11" fill="#A0C0E0">Streak</text>
  <rect x="492" y="454" width="100" height="16" fill="#2A2A3A" stroke="#4A4A5A" stroke-width="1"/>
  <text x="542" y="466" text-anchor="middle" font-size="11" font-weight="bold" fill="#FFFFFF" id="streak">IDR</text>

  <!-- note -->
  <text x="42" y="496" font-size="9" fill="#6A9EC8">* Data live dari shields.io dan streak-stats.demolab.com</text>

  <!-- creeper -->
  <g>
    <rect x="580" y="240" width="130" height="130" fill="#4A8B3A" stroke="#3A6E2C" stroke-width="2"/>
    <rect x="606" y="266" width="22" height="22" fill="#1C1C28"/>
    <rect x="662" y="266" width="22" height="22" fill="#1C1C28"/>
    <rect x="618" y="304" width="12" height="12" fill="#1C1C28"/>
    <rect x="644" y="304" width="12" height="12" fill="#1C1C28"/>
    <rect x="670" y="304" width="12" height="12" fill="#1C1C28"/>
    <rect x="630" y="330" width="28" height="14" fill="#1C1C28"/>
  </g>

  <!-- XP bar -->
  <rect x="30" y="540" width="740" height="8" fill="#2A2A3A"/>
  <rect x="30" y="540" width="520" height="8" fill="#5FB34A"/>
  <rect x="30" y="540" width="2" height="8" fill="#87CEEB" opacity="0.6"/>
  <rect x="160" y="540" width="2" height="8" fill="#87CEEB" opacity="0.6"/>
  <rect x="290" y="540" width="2" height="8" fill="#87CEEB" opacity="0.6"/>
  <rect x="420" y="540" width="2" height="8" fill="#87CEEB" opacity="0.6"/>
  <rect x="550" y="540" width="2" height="8" fill="#87CEEB" opacity="0.6"/>
  <rect x="680" y="540" width="2" height="8" fill="#87CEEB" opacity="0.6"/>

  <text x="30" y="568" font-size="10" fill="#6A9EC8">HP 20  |  XP 385  |  Level 8+</text>
  <text x="600" y="568" font-size="10" fill="#6A9EC8">[data live dari GitHub]</text>

  <!-- creeper face bottom right -->
  <g>
    <rect x="560" y="526" width="48" height="48" fill="#4A8B3A" stroke="#3A6E2C" stroke-width="1"/>
    <rect x="568" y="534" width="8" height="8" fill="#1C1C28"/>
    <rect x="592" y="534" width="8" height="8" fill="#1C1C28"/>
    <rect x="572" y="548" width="4" height="4" fill="#1C1C28"/>
    <rect x="590" y="548" width="4" height="4" fill="#1C1C28"/>
    <rect x="600" y="548" width="4" height="4" fill="#1C1C28"/>
    <rect x="580" y="558" width="8" height="4" fill="#1C1C28"/>
  </g>

  <!-- footer -->
  <text x="30" y="602" font-size="9" fill="#6A9EC8">MOKO-AI PROJECT  |  v2.0  |  Zona 2 - About</text>
  <rect x="30" y="610" width="740" height="2" fill="#5A5A5A"/>

  <!-- tanda tangan -->
  <text x="30" y="632" font-size="9" fill="#4A6A8A">built with block, byte, dan secangkir kopi</text>
</svg>
