<svg xmlns="http://www.w3.org/2000/svg" width="800" height="360" viewBox="0 0 800 360" font-family="monospace">
  <defs>
    <pattern id="grid" width="40" height="40" patternUnits="userSpaceOnUse">
      <rect width="40" height="40" fill="#2A2A3A"/>
      <rect width="38" height="38" fill="#2E2E42"/>
    </pattern>
  </defs>

  <rect x="0" y="0" width="800" height="360" fill="#1C1C28"/>
  <rect x="4" y="4" width="792" height="352" fill="#3A3A3A"/>
  <rect x="6" y="6" width="788" height="348" fill="url(#grid)"/>
  <rect x="2" y="2" width="796" height="356" fill="none" stroke="#5A5A5A" stroke-width="2"/>
  <rect x="8" y="8" width="784" height="344" fill="none" stroke="#8A8A8A" stroke-width="2"/>
  <line x1="10" y1="10" x2="790" y2="10" stroke="#B8B8B8" stroke-width="1"/>
  <line x1="10" y1="10" x2="10" y2="350" stroke="#B8B8B8" stroke-width="1"/>

  <!-- player icon + name -->
  <rect x="30" y="24" width="20" height="32" fill="#E0B080"/>
  <rect x="30" y="18" width="20" height="6" fill="#5E3C1B"/>
  <rect x="34" y="38" width="12" height="18" fill="#1FB6D8"/>
  <rect x="26" y="34" width="6" height="14" fill="#E6E9EE"/>
  <rect x="48" y="34" width="6" height="14" fill="#E6E9EE"/>
  <rect x="34" y="56" width="6" height="8" fill="#2E8FB8"/>
  <rect x="42" y="56" width="6" height="8" fill="#2E8FB8"/>
  <text x="64" y="38" font-size="22" font-weight="bold" fill="#FCD34D">BRIAN ATMOKO</text>
  <text x="64" y="58" font-size="11" fill="#1FB6D8">EMBEDDED &amp; FULLSTACK ENGINEER</text>

  <rect x="30" y="76" width="740" height="2" fill="#5A5A5A"/>

  <!-- decorative MC item frame -->
  <rect x="30" y="96" width="370" height="160" fill="#23233A" stroke="#4A4A5A" stroke-width="2"/>
  <rect x="28" y="94" width="374" height="164" fill="none" stroke="#8A8A8A" stroke-width="1" opacity="0.3"/>
  <text x="40" y="118" font-size="11" fill="#87CEEB">Data tersaji dalam tabel di bawah.</text>
  <text x="40" y="136" font-size="11" fill="#87CEEB">Skill, stack, dan statistik live dari</text>
  <text x="40" y="154" font-size="11" fill="#87CEEB">shields.io &amp; GitHub API.</text>

  <!-- creeper: ghost white design -->
  <g>
    <rect x="486" y="101" width="99" height="96" fill="#F0F0F0" stroke="#C0C0C0" stroke-width="3"/>
    <rect x="486" y="101" width="99" height="13" fill="#FFFFFF"/>
    <rect x="501" y="114" width="68" height="5" fill="#D0D0D0"/>
    <rect x="496" y="122" width="18" height="18" fill="#1C1C28"/>
    <rect x="556" y="122" width="18" height="18" fill="#1C1C28"/>
    <rect x="512" y="145" width="10" height="8" fill="#1C1C28"/>
    <rect x="525" y="145" width="10" height="8" fill="#1C1C28"/>
    <rect x="535" y="145" width="10" height="8" fill="#1C1C28"/>
    <rect x="548" y="145" width="10" height="8" fill="#1C1C28"/>
    <rect x="509" y="153" width="52" height="8" fill="#D0D0D0"/>
    <rect x="493" y="197" width="16" height="29" fill="#F0F0F0" stroke="#C0C0C0" stroke-width="1"/>
    <rect x="514" y="197" width="16" height="29" fill="#F0F0F0" stroke="#C0C0C0" stroke-width="1"/>
    <rect x="540" y="197" width="16" height="29" fill="#F0F0F0" stroke="#C0C0C0" stroke-width="1"/>
    <rect x="561" y="197" width="16" height="29" fill="#F0F0F0" stroke="#C0C0C0" stroke-width="1"/>
    <rect x="495" y="223" width="13" height="5" fill="#B0B0B0"/>
    <rect x="516" y="223" width="13" height="5" fill="#B0B0B0"/>
    <rect x="542" y="223" width="13" height="5" fill="#B0B0B0"/>
    <rect x="562" y="223" width="13" height="5" fill="#B0B0B0"/>
  </g>

  <!-- XP bar -->
  <rect x="30" y="280" width="740" height="8" fill="#2A2A3A"/>
  <rect x="30" y="280" width="520" height="8" fill="#5FB34A"/>
  <rect x="30" y="280" width="2" height="8" fill="#87CEEB" opacity="0.6"/>
  <rect x="160" y="280" width="2" height="8" fill="#87CEEB" opacity="0.6"/>
  <rect x="290" y="280" width="2" height="8" fill="#87CEEB" opacity="0.6"/>
  <rect x="420" y="280" width="2" height="8" fill="#87CEEB" opacity="0.6"/>
  <rect x="550" y="280" width="2" height="8" fill="#87CEEB" opacity="0.6"/>
  <rect x="680" y="280" width="2" height="8" fill="#87CEEB" opacity="0.6"/>

  <text x="30" y="306" font-size="10" fill="#6A9EC8">HP 20  |  XP 385  |  Level 8+</text>
  <text x="600" y="306" font-size="10" fill="#6A9EC8">[data live dari GitHub]</text>

  <text x="30" y="338" font-size="9" fill="#4A6A8A">built with block, byte, dan secangkir kopi</text>
</svg>
