<svg xmlns="http://www.w3.org/2000/svg" width="800" height="600" viewBox="0 0 800 600">
  <!-- ===== INTI BUMI ===== -->
  <rect x="0"  y="0"   width="800" height="40"  fill="#15131F"/>
  <rect x="0"  y="40"  width="800" height="180" fill="#2A1810"/>
  <rect x="0"  y="40"  width="40"  height="180" fill="#1A1A28"/>
  <rect x="760" y="40"  width="40"  height="180" fill="#1A1A28"/>
  <rect x="0"  y="196" width="800" height="24"  fill="#FF6F00"/>
  <rect x="0"  y="196" width="800" height="6"   fill="#FFD08A"/>

  <!-- core glow -->
  <rect x="350" y="60"  width="100" height="100" fill="#FF6F00" opacity="0.25"/>
  <rect x="364" y="74"  width="72"  height="72"  fill="#FF6F00"/>
  <rect x="376" y="86"  width="48"  height="48"  fill="#FCD34D"/>
  <rect x="388" y="98"  width="24"  height="24"  fill="#1FB6D8"/>
  <rect x="396" y="106" width="8"   height="8"   fill="#FFFFFF"/>
  <g fill="#FCD34D">
    <rect x="340" y="90"  width="4" height="4"/><rect x="360" y="140" width="4" height="4"/><rect x="450" y="100" width="4" height="4"/>
  </g>
  <g fill="#1FB6D8">
    <rect x="440" y="70"  width="4" height="4"/><rect x="400" y="58"  width="4" height="4"/>
  </g>

  <!-- Villager -->
  <g>
    <rect x="248" y="148" width="32" height="6"  fill="#3A2A1A"/>
    <rect x="248" y="154" width="32" height="18" fill="#D6A47B"/>
    <rect x="252" y="158" width="4"  height="4"  fill="#1C1C28"/>
    <rect x="272" y="158" width="4"  height="4"  fill="#1C1C28"/>
    <rect x="260" y="160" width="8"  height="10" fill="#C49565"/>
    <rect x="252" y="172" width="24" height="28" fill="#8B5A2B"/>
    <rect x="256" y="178" width="16" height="10" fill="#6E4420"/>
    <rect x="244" y="174" width="8"  height="20" fill="#8B5A2B"/>
    <rect x="276" y="174" width="8"  height="20" fill="#8B5A2B"/>
    <rect x="254" y="200" width="8"  height="10" fill="#4A3A2A"/>
    <rect x="266" y="200" width="8"  height="10" fill="#4A3A2A"/>
  </g>

  <!-- sign ZONA 5 -->
  <rect x="470" y="58" width="220" height="46" fill="#8B5A2B" stroke="#5E3C1B" stroke-width="4"/>
  <text x="580" y="78" text-anchor="middle" font-size="14" font-weight="bold" fill="#FCD34D" font-family="monospace">ZONA 5</text>
  <text x="580" y="96" text-anchor="middle" font-size="10" fill="#1FB6D8" font-family="monospace">INTI BUMI</text>

  <!-- ===== PANEL CORE VALUES ===== -->
  <rect x="0"   y="220" width="800" height="380" fill="#1C1C28"/>
  <rect x="4"   y="224" width="792" height="372" fill="#3A3A3A"/>
  <rect x="6"   y="226" width="788" height="368" fill="#2E2E42"/>
  <rect x="2"   y="222" width="796" height="376" fill="none" stroke="#5A5A5A" stroke-width="2"/>
  <rect x="8"   y="228" width="784" height="364" fill="none" stroke="#8A8A8A" stroke-width="2"/>

  <!-- header -->
  <rect x="30" y="244" width="36" height="36" fill="#9AA7B5"/>
  <rect x="36" y="252" width="24" height="10" fill="#1FB6D8"/>
  <rect x="44" y="236" width="4"  height="8"  fill="#9AA7B5"/>
  <rect x="42" y="232" width="8"  height="6"  fill="#FCD34D"/>
  <text x="78" y="260" font-size="22" font-weight="bold" fill="#FCD34D" font-family="monospace">CORE VALUES</text>
  <text x="78" y="278" font-size="10" fill="#1FB6D8" font-family="monospace">Mission . Impact . Open Source . Growth</text>
  <rect x="30" y="290" width="740" height="2" fill="#5A5A5A"/>

  <!-- Slot 1: Open Source -->
  <rect x="30"  y="306" width="360" height="68" fill="#23233A" stroke="#4A4A5A" stroke-width="2"/>
  <rect x="42"  y="322" width="40"  height="38" fill="#FCD34D" stroke="#B89B20" stroke-width="2"/>
  <rect x="50"  y="330" width="24" height="22" fill="#FFFFFF"/>
  <rect x="56"  y="340" width="6"  height="4"  fill="#FCD34D"/>
  <rect x="58"  y="338" width="2"  height="10" fill="#FCD34D"/>
  <text x="92" y="330" font-size="13" font-weight="bold" fill="#FFFFFF" font-family="monospace">Open Source</text>
  <text x="92" y="348" font-size="10" fill="#A0C0E0" font-family="monospace">Membangun &amp; berkontribusi untuk komunitas</text>

  <!-- Slot 2: Impact -->
  <rect x="410" y="306" width="360" height="68" fill="#23233A" stroke="#4A4A5A" stroke-width="2"/>
  <rect x="422" y="322" width="40"  height="38" fill="#C51A4A" stroke="#8A0A2A" stroke-width="2"/>
  <rect x="430" y="330" width="24" height="22" fill="#FFFFFF"/>
  <rect x="438" y="336" width="8"  height="10" fill="#C51A4A"/>
  <text x="472" y="330" font-size="13" font-weight="bold" fill="#FFFFFF" font-family="monospace">Impact</text>
  <text x="472" y="348" font-size="10" fill="#A0C0E0" font-family="monospace">Solusi nyata untuk masalah nyata</text>

  <!-- Slot 3: Continuous Learning -->
  <rect x="30"  y="392" width="360" height="68" fill="#23233A" stroke="#4A4A5A" stroke-width="2"/>
  <rect x="42"  y="408" width="40"  height="38" fill="#2E8FB8" stroke="#1E5A7A" stroke-width="2"/>
  <rect x="50"  y="416" width="24" height="22" fill="#FFFFFF"/>
  <rect x="56"  y="422" width="12" height="10" fill="#2E8FB8"/>
  <rect x="62"  y="416" width="4"  height="4"  fill="#2E8FB8"/>
  <text x="92" y="416" font-size="13" font-weight="bold" fill="#FFFFFF" font-family="monospace">Continuous Learning</text>
  <text x="92" y="434" font-size="10" fill="#A0C0E0" font-family="monospace">Eksplorasi teknologi baru setiap hari</text>

  <!-- Slot 4: Build with Purpose -->
  <rect x="410" y="392" width="360" height="68" fill="#23233A" stroke="#4A4A5A" stroke-width="2"/>
  <rect x="422" y="408" width="40"  height="38" fill="#5FB34A" stroke="#3A7A2A" stroke-width="2"/>
  <rect x="430" y="416" width="24" height="22" fill="#FFFFFF"/>
  <rect x="438" y="422" width="8"  height="10" fill="#5FB34A"/>
  <rect x="434" y="430" width="16" height="4" fill="#5FB34A"/>
  <text x="472" y="416" font-size="13" font-weight="bold" fill="#FFFFFF" font-family="monospace">Build with Purpose</text>
  <text x="472" y="434" font-size="10" fill="#A0C0E0" font-family="monospace">Kode yang bersih, bermakna, scalable</text>

  <!-- divider -->
  <rect x="30" y="476" width="740" height="2" fill="#5A5A5A"/>

  <!-- mission statement + MOKO-AI -->
  <rect x="30" y="492" width="740" height="96" fill="#23233A" stroke="#FCD34D" stroke-width="2"/>
  <rect x="28" y="490" width="744" height="100" fill="none" stroke="#8A8A8A" stroke-width="1" opacity="0.3"/>
  <rect x="42" y="504" width="40" height="40" fill="#1FB6D8" stroke="#0E5A7A" stroke-width="2"/>
  <rect x="48" y="512" width="28" height="10" fill="#FFFFFF"/>
  <rect x="56" y="496" width="4"  height="8"  fill="#1FB6D8"/>
  <rect x="54" y="492" width="8"  height="6"  fill="#9AA7B5"/>
  <text x="92" y="512" font-size="13" font-weight="bold" fill="#FCD34D" font-family="monospace">Mission: MOKO-AI</text>
  <text x="92" y="530" font-size="10" fill="#A0C0E0" font-family="monospace">Mewujudkan AI yang accessible, on-edge, dan terintegrasi</text>
  <text x="92" y="548" font-size="10" fill="#A0C0E0" font-family="monospace">Dari angkasa ke inti bumi - perjalanan tanpa batas</text>

  <!-- creeper -->
  <g>
    <rect x="650" y="496" width="100" height="100" fill="#4A8B3A" stroke="#3A6E2C" stroke-width="2"/>
    <rect x="670" y="516" width="18" height="18" fill="#1C1C28"/>
    <rect x="712" y="516" width="18" height="18" fill="#1C1C28"/>
    <rect x="682" y="548" width="10" height="10" fill="#1C1C28"/>
    <rect x="702" y="548" width="10" height="10" fill="#1C1C28"/>
    <rect x="722" y="548" width="10" height="10" fill="#1C1C28"/>
    <rect x="692" y="568" width="20" height="10" fill="#1C1C28"/>
  </g>

  <rect x="2" y="2" width="796" height="596" fill="none" stroke="#5A5A5A" stroke-width="4"/>
</svg>
