<svg xmlns="http://www.w3.org/2000/svg" width="800" height="600" viewBox="0 0 800 600">
  <!-- ===== INTI BUMI ===== -->
  <rect x="0"  y="0"   width="800" height="30"  fill="#15131F"/>
  <rect x="0"  y="30"  width="800" height="190" fill="#2A1810"/>

  <!-- chains from ceiling -->
  <rect x="60"  y="0"  width="4" height="36" fill="#6E6E6E"/>
  <rect x="58"  y="6"  width="8" height="4" fill="#8A8A8A"/>
  <rect x="58"  y="18" width="8" height="4" fill="#8A8A8A"/>
  <rect x="58"  y="30" width="8" height="4" fill="#8A8A8A"/>

  <rect x="740" y="0"  width="4" height="40" fill="#6E6E6E"/>
  <rect x="738" y="6"  width="8" height="4" fill="#8A8A8A"/>
  <rect x="738" y="20" width="8" height="4" fill="#8A8A8A"/>
  <rect x="738" y="34" width="8" height="4" fill="#8A8A8A"/>

  <!-- obsidian pillars -->
  <rect x="50"  y="60"  width="18" height="120" fill="#0A0A1E"/>
  <rect x="54"  y="64"  width="10" height="4"   fill="#1A1A36"/>
  <rect x="54"  y="84"  width="10" height="4"   fill="#1A1A36"/>
  <rect x="54"  y="140" width="10" height="4"   fill="#1A1A36"/>

  <rect x="732" y="80"  width="18" height="100" fill="#0A0A1E"/>
  <rect x="736" y="84"  width="10" height="4"   fill="#1A1A36"/>
  <rect x="736" y="120" width="10" height="4"   fill="#1A1A36"/>
  <rect x="736" y="158" width="10" height="4"   fill="#1A1A36"/>

  <!-- ancient debris -->
  <rect x="120" y="170" width="20" height="20" fill="#3A1A1A"/>
  <rect x="124" y="174" width="4"  height="4"  fill="#FCD34D"/>
  <rect x="132" y="178" width="4"  height="4"  fill="#FCD34D"/>

  <rect x="660" y="160" width="20" height="20" fill="#3A1A1A"/>
  <rect x="664" y="164" width="4"  height="4"  fill="#FCD34D"/>
  <rect x="672" y="170" width="4"  height="4"  fill="#FCD34D"/>

  <!-- magma blocks -->
  <rect x="180" y="190" width="16" height="10" fill="#FF6F00"/>
  <rect x="184" y="194" width="4"  height="4"  fill="#B84A00"/>
  <rect x="194" y="192" width="4"  height="4"  fill="#B84A00"/>

  <rect x="600" y="186" width="16" height="14" fill="#FF6F00"/>
  <rect x="604" y="190" width="4"  height="4"  fill="#B84A00"/>
  <rect x="610" y="196" width="4"  height="4"  fill="#B84A00"/>

  <!-- glowstone clusters -->
  <rect x="200" y="50" width="20" height="16" fill="#FCD34D"/>
  <rect x="204" y="54" width="4"  height="4"  fill="#FFE9A0"/>
  <rect x="212" y="52" width="4"  height="4"  fill="#FFE9A0"/>

  <rect x="580" y="60" width="16" height="20" fill="#FCD34D"/>
  <rect x="584" y="64" width="4"  height="4"  fill="#FFE9A0"/>
  <rect x="588" y="72" width="4"  height="4"  fill="#FFE9A0"/>

  <!-- core glow -->
  <rect x="340" y="58" width="120" height="120" fill="#FF6F00" opacity="0.15"/>
  <rect x="350" y="68" width="100" height="100" fill="#FF6F00" opacity="0.25"/>
  <rect x="364" y="74" width="72"  height="72"  fill="#FF6F00"/>
  <rect x="370" y="80" width="60"  height="60"  fill="#FCD34D"/>
  <rect x="376" y="86" width="48"  height="48"  fill="#FFE9A0"/>
  <rect x="382" y="92" width="36"  height="36"  fill="#FFFFFF"/>
  <rect x="388" y="98" width="24"  height="24"  fill="#1FB6D8"/>
  <rect x="396" y="106" width="8"   height="8"   fill="#FFFFFF"/>

  <!-- core particles -->
  <g fill="#FCD34D">
    <rect x="330" y="88"  width="4" height="4"/>
    <rect x="350" y="148" width="4" height="4"/>
    <rect x="460" y="96"  width="4" height="4"/>
    <rect x="440" y="150" width="4" height="4"/>
    <rect x="310" y="120" width="3" height="3"/>
    <rect x="480" y="130" width="3" height="3"/>
  </g>
  <g fill="#1FB6D8">
    <rect x="450" y="68"  width="4" height="4"/>
    <rect x="400" y="54"  width="4" height="4"/>
    <rect x="356" y="72"  width="3" height="3"/>
    <rect x="440" y="112" width="3" height="3"/>
  </g>

  <!-- nether portal -->
  <rect x="490" y="58" width="8" height="80" fill="#1C1C28"/>
  <rect x="542" y="58" width="8" height="80" fill="#1C1C28"/>
  <rect x="490" y="58" width="60" height="8" fill="#1C1C28"/>
  <rect x="490" y="130" width="60" height="8" fill="#1C1C28"/>
  <rect x="498" y="66" width="44" height="64" fill="#4A0A5A"/>
  <rect x="502" y="70" width="8" height="8" fill="#C51A4A"/>
  <rect x="518" y="74" width="8" height="8" fill="#1FB6D8"/>
  <rect x="530" y="82" width="8" height="8" fill="#C51A4A"/>
  <rect x="504" y="90" width="8" height="8" fill="#1FB6D8"/>
  <rect x="526" y="100" width="8" height="8" fill="#C51A4A"/>
  <rect x="510" y="112" width="8" height="8" fill="#1FB6D8"/>
  <rect x="520" y="116" width="8" height="8" fill="#C51A4A"/>
  <rect x="514" y="96" width="8" height="8" fill="#FFFFFF"/>
  <rect x="500" y="120" width="4" height="4" fill="#C51A4A"/>
  <rect x="530" y="70" width="4" height="4" fill="#1FB6D8"/>

  <!-- portal glow -->
  <rect x="494" y="60" width="52" height="76" fill="#C51A4A" opacity="0.1"/>

  <!-- Villager -->
  <g>
    <rect x="240" y="148" width="32" height="6"  fill="#3A2A1A"/>
    <rect x="240" y="154" width="32" height="18" fill="#D6A47B"/>
    <rect x="244" y="158" width="4"  height="4"  fill="#1C1C28"/>
    <rect x="264" y="158" width="4"  height="4"  fill="#1C1C28"/>
    <rect x="252" y="160" width="8"  height="10" fill="#C49565"/>
    <rect x="244" y="172" width="24" height="28" fill="#8B5A2B"/>
    <rect x="248" y="178" width="16" height="10" fill="#6E4420"/>
    <rect x="236" y="174" width="8"  height="20" fill="#8B5A2B"/>
    <rect x="268" y="174" width="8"  height="20" fill="#8B5A2B"/>
    <rect x="246" y="200" width="8"  height="10" fill="#4A3A2A"/>
    <rect x="258" y="200" width="8"  height="10" fill="#4A3A2A"/>
  </g>

  <!-- ===== PANEL CORE VALUES ===== -->
  <rect x="0"   y="220" width="800" height="380" fill="#1C1C28"/>
  <rect x="4"   y="224" width="792" height="372" fill="#3A3A3A"/>
  <rect x="6"   y="226" width="788" height="368" fill="#2E2E42"/>
  <rect x="2"   y="222" width="796" height="376" fill="none" stroke="#5A5A5A" stroke-width="2"/>
  <rect x="8"   y="228" width="784" height="364" fill="none" stroke="#8A8A8A" stroke-width="2"/>

  <!-- header -->
  <rect x="30" y="244" width="36" height="36" fill="#9AA7B5"/>
  <rect x="36" y="252" width="24" height="10" fill="#1FB6D8"/>
  <rect x="44" y="236" width="4"  height="8"  fill="#9AA7B5"/>
  <rect x="42" y="232" width="8"  height="6"  fill="#FCD34D"/>
  <text x="78" y="260" font-size="22" font-weight="bold" fill="#FCD34D" font-family="monospace">CORE VALUES</text>
  <text x="78" y="278" font-size="10" fill="#1FB6D8" font-family="monospace">Mission . Impact . Open Source . Growth</text>
  <rect x="30" y="290" width="740" height="2" fill="#5A5A5A"/>

  <!-- Slot 1: Open Source -->
  <rect x="30"  y="306" width="360" height="68" fill="#23233A" stroke="#4A4A5A" stroke-width="2"/>
  <rect x="42"  y="322" width="40"  height="38" fill="#FCD34D" stroke="#B89B20" stroke-width="2"/>
  <rect x="50"  y="330" width="24" height="22" fill="#FFFFFF"/>
  <rect x="56"  y="340" width="6"  height="4"  fill="#FCD34D"/>
  <rect x="58"  y="338" width="2"  height="10" fill="#FCD34D"/>
  <text x="92" y="330" font-size="13" font-weight="bold" fill="#FFFFFF" font-family="monospace">Open Source</text>
  <text x="92" y="348" font-size="10" fill="#A0C0E0" font-family="monospace">● Membangun &amp; berkontribusi untuk komunitas</text>

  <!-- Slot 2: Impact -->
  <rect x="410" y="306" width="360" height="68" fill="#23233A" stroke="#4A4A5A" stroke-width="2"/>
  <rect x="422" y="322" width="40"  height="38" fill="#C51A4A" stroke="#8A0A2A" stroke-width="2"/>
  <rect x="430" y="330" width="24" height="22" fill="#FFFFFF"/>
  <rect x="438" y="336" width="8"  height="10" fill="#C51A4A"/>
  <text x="472" y="330" font-size="13" font-weight="bold" fill="#FFFFFF" font-family="monospace">Impact</text>
  <text x="472" y="348" font-size="10" fill="#A0C0E0" font-family="monospace">● Solusi nyata untuk masalah nyata</text>

  <!-- Slot 3: Continuous Learning -->
  <rect x="30"  y="392" width="360" height="68" fill="#23233A" stroke="#4A4A5A" stroke-width="2"/>
  <rect x="42"  y="408" width="40"  height="38" fill="#2E8FB8" stroke="#1E5A7A" stroke-width="2"/>
  <rect x="50"  y="416" width="24" height="22" fill="#FFFFFF"/>
  <rect x="56"  y="422" width="12" height="10" fill="#2E8FB8"/>
  <rect x="62"  y="416" width="4"  height="4"  fill="#2E8FB8"/>
  <text x="92" y="416" font-size="13" font-weight="bold" fill="#FFFFFF" font-family="monospace">Continuous Learning</text>
  <text x="92" y="434" font-size="10" fill="#A0C0E0" font-family="monospace">● Eksplorasi teknologi baru setiap hari</text>

  <!-- Slot 4: Build with Purpose -->
  <rect x="410" y="392" width="360" height="68" fill="#23233A" stroke="#4A4A5A" stroke-width="2"/>
  <rect x="422" y="408" width="40"  height="38" fill="#5FB34A" stroke="#3A7A2A" stroke-width="2"/>
  <rect x="430" y="416" width="24" height="22" fill="#FFFFFF"/>
  <rect x="438" y="422" width="8"  height="10" fill="#5FB34A"/>
  <rect x="434" y="430" width="16" height="4" fill="#5FB34A"/>
  <text x="472" y="416" font-size="13" font-weight="bold" fill="#FFFFFF" font-family="monospace">Build with Purpose</text>
  <text x="472" y="434" font-size="10" fill="#A0C0E0" font-family="monospace">● Kode yang bersih, bermakna, scalable</text>

  <!-- divider -->
  <rect x="30" y="476" width="740" height="2" fill="#5A5A5A"/>

  <!-- mission statement + MOKO-AI -->
  <rect x="30" y="492" width="740" height="96" fill="#23233A" stroke="#FCD34D" stroke-width="2"/>
  <rect x="28" y="490" width="744" height="100" fill="none" stroke="#8A8A8A" stroke-width="1" opacity="0.3"/>
  <rect x="42" y="504" width="40" height="40" fill="#1FB6D8" stroke="#0E5A7A" stroke-width="2"/>
  <rect x="48" y="512" width="28" height="10" fill="#FFFFFF"/>
  <rect x="56" y="496" width="4"  height="8"  fill="#1FB6D8"/>
  <rect x="54" y="492" width="8"  height="6"  fill="#9AA7B5"/>
  <text x="92" y="512" font-size="13" font-weight="bold" fill="#FCD34D" font-family="monospace">Mission: MOKO-AI</text>
  <text x="92" y="530" font-size="10" fill="#A0C0E0" font-family="monospace">◆ Embedded OS dari 0: belajar, bangun, dokumen, bagikan</text>
  <text x="92" y="548" font-size="10" fill="#A0C0E0" font-family="monospace">◆ Dari angkasa ke inti bumi — perjalanan tanpa batas</text>

  <!-- creeper: redesigned closer to Minecraft original -->
  <g>
    <rect x="662" y="500" width="76" height="74" fill="#F0F0F0" stroke="#C0C0C0" stroke-width="2"/>
    <rect x="662" y="500" width="76" height="10" fill="#FFFFFF"/>
    <rect x="674" y="510" width="52" height="4" fill="#D0D0D0"/>
    <rect x="670" y="516" width="14" height="14" fill="#1C1C28"/>
    <rect x="716" y="516" width="14" height="14" fill="#1C1C28"/>
    <rect x="682" y="534" width="8" height="6" fill="#1C1C28"/>
    <rect x="692" y="534" width="8" height="6" fill="#1C1C28"/>
    <rect x="700" y="534" width="8" height="6" fill="#1C1C28"/>
    <rect x="710" y="534" width="8" height="6" fill="#1C1C28"/>
    <rect x="680" y="540" width="40" height="6" fill="#D0D0D0"/>
    <rect x="668" y="574" width="12" height="22" fill="#F0F0F0" stroke="#C0C0C0" stroke-width="1"/>
    <rect x="684" y="574" width="12" height="22" fill="#F0F0F0" stroke="#C0C0C0" stroke-width="1"/>
    <rect x="704" y="574" width="12" height="22" fill="#F0F0F0" stroke="#C0C0C0" stroke-width="1"/>
    <rect x="720" y="574" width="12" height="22" fill="#F0F0F0" stroke="#C0C0C0" stroke-width="1"/>
    <rect x="669" y="594" width="10" height="4" fill="#B0B0B0"/>
    <rect x="685" y="594" width="10" height="4" fill="#B0B0B0"/>
    <rect x="705" y="594" width="10" height="4" fill="#B0B0B0"/>
    <rect x="721" y="594" width="10" height="4" fill="#B0B0B0"/>
  </g>

  <rect x="2" y="2" width="796" height="596" fill="none" stroke="#5A5A5A" stroke-width="4"/>
</svg>
