<svg xmlns="http://www.w3.org/2000/svg" width="800" height="600" viewBox="0 0 800 600">
  <!-- angkasa -->
  <rect y="0"   width="800" height="240" fill="#1C1C28"/>
  <!-- atmosfer transition -->
  <rect y="240" width="800" height="40"  fill="#2E4A6E"/>
  <!-- langit -->
  <rect y="280" width="800" height="220" fill="#88CCEA"/>
  <!-- lower sky -->
  <rect y="500" width="800" height="100" fill="#A8D8EF"/>

  <!-- nametag -->
  <text x="60" y="110" font-size="11" font-weight="bold" fill="#FFFFFF" font-family="monospace">brianatmokoo</text>
  <text x="60" y="109" font-size="11" font-weight="bold" fill="#1C1C28" font-family="monospace">brianatmokoo</text>

  <!-- stars -->
  <g fill="#FFFFFF">
    <rect x="40" y="30" width="2" height="2"/><rect x="90" y="60" width="2" height="2"/>
    <rect x="140" y="20" width="2" height="2"/><rect x="190" y="80" width="2" height="2"/>
    <rect x="240" y="40" width="2" height="2"/><rect x="300" y="70" width="2" height="2"/>
    <rect x="340" y="20" width="2" height="2"/><rect x="390" y="90" width="2" height="2"/>
    <rect x="440" y="30" width="2" height="2"/><rect x="500" y="60" width="2" height="2"/>
    <rect x="540" y="20" width="2" height="2"/><rect x="590" y="80" width="2" height="2"/>
    <rect x="640" y="40" width="2" height="2"/><rect x="690" y="90" width="2" height="2"/>
    <rect x="740" y="30" width="2" height="2"/><rect x="70" y="130" width="2" height="2"/>
    <rect x="120" y="180" width="2" height="2"/><rect x="170" y="150" width="2" height="2"/>
    <rect x="220" y="120" width="2" height="2"/><rect x="280" y="160" width="2" height="2"/>
    <rect x="320" y="140" width="2" height="2"/><rect x="380" y="180" width="2" height="2"/>
    <rect x="430" y="150" width="2" height="2"/><rect x="490" y="120" width="2" height="2"/>
    <rect x="530" y="170" width="2" height="2"/><rect x="580" y="140" width="2" height="2"/>
    <rect x="630" y="180" width="2" height="2"/><rect x="680" y="130" width="2" height="2"/>
    <rect x="740" y="170" width="2" height="2"/><rect x="770" y="120" width="2" height="2"/>
    <rect x="100" y="200" width="2" height="2"/><rect x="200" y="210" width="2" height="2"/>
    <rect x="360" y="200" width="2" height="2"/><rect x="460" y="210" width="2" height="2"/>
    <rect x="560" y="200" width="2" height="2"/><rect x="660" y="200" width="2" height="2"/>
    <rect x="760" y="210" width="2" height="2"/>
    <rect x="110" y="50" width="3" height="3"/><rect x="550" y="130" width="3" height="3"/>
    <rect x="380" y="50" width="3" height="3"/><rect x="650" y="90" width="3" height="3"/>
  </g>

  <!-- moon -->
  <rect x="670" y="30" width="44" height="44" fill="#D9D9D9"/>
  <rect x="682" y="42" width="10" height="10" fill="#B0B0B0"/>
  <rect x="698" y="52" width="8" height="8" fill="#B0B0B0"/>
  <rect x="676" y="48" width="8" height="10" fill="#B8B8B8"/>

  <!-- hot air balloon -->
  <g>
    <rect x="528" y="60" width="16" height="16" fill="#C51A4A"/>
    <rect x="512" y="76" width="16" height="16" fill="#C51A4A"/>
    <rect x="528" y="76" width="16" height="16" fill="#FFFFFF"/>
    <rect x="544" y="76" width="16" height="16" fill="#C51A4A"/>
    <rect x="496" y="92" width="16" height="16" fill="#FFFFFF"/>
    <rect x="512" y="92" width="16" height="16" fill="#C51A4A"/>
    <rect x="528" y="92" width="16" height="16" fill="#FFFFFF"/>
    <rect x="544" y="92" width="16" height="16" fill="#C51A4A"/>
    <rect x="560" y="92" width="16" height="16" fill="#FFFFFF"/>
    <rect x="512" y="108" width="16" height="16" fill="#C51A4A"/>
    <rect x="528" y="108" width="16" height="16" fill="#FFFFFF"/>
    <rect x="544" y="108" width="16" height="16" fill="#C51A4A"/>
    <rect x="528" y="124" width="16" height="16" fill="#C51A4A"/>
    <rect x="526" y="140" width="3" height="14" fill="#6E4420"/>
    <rect x="543" y="140" width="3" height="14" fill="#6E4420"/>
    <rect x="520" y="154" width="32" height="20" fill="#8B5A2B"/>
    <rect x="520" y="154" width="32" height="4" fill="#6E4420"/>
    <rect x="520" y="170" width="32" height="4" fill="#6E4420"/>
    <rect x="530" y="136" width="12" height="4" fill="#5E3C1B"/>
    <rect x="530" y="140" width="12" height="8" fill="#E0B080"/>
    <rect x="533" y="142" width="8" height="4" fill="#1FB6D8"/>
    <rect x="532" y="148" width="8" height="6" fill="#F2F4F7"/>
  </g>

  <!-- sun -->
  <rect x="120" y="300" width="48" height="48" fill="#FCD34D"/>
  <rect x="132" y="312" width="24" height="24" fill="#FFE9A0"/>

  <!-- clouds -->
  <g fill="#FFFFFF">
    <rect x="70"  y="310" width="16" height="16"/><rect x="86" y="310" width="16" height="16"/><rect x="70" y="326" width="16" height="16"/>
    <rect x="200" y="340" width="16" height="16"/><rect x="216" y="340" width="16" height="16"/>
    <rect x="340" y="320" width="16" height="16"/><rect x="356" y="320" width="16" height="16"/>
    <rect x="500" y="330" width="16" height="16"/><rect x="516" y="330" width="16" height="16"/>
    <rect x="610" y="310" width="16" height="16"/><rect x="626" y="310" width="16" height="16"/>
    <rect x="130" y="400" width="24" height="24"/><rect x="154" y="400" width="24" height="24"/><rect x="130" y="424" width="24" height="24"/>
    <rect x="580" y="420" width="24" height="24"/><rect x="604" y="420" width="24" height="24"/><rect x="580" y="444" width="24" height="24"/>
    <rect x="40"  y="520" width="20" height="20"/><rect x="60" y="520" width="20" height="20"/><rect x="40" y="540" width="20" height="20"/>
    <rect x="700" y="530" width="20" height="20"/><rect x="720" y="530" width="20" height="20"/><rect x="700" y="550" width="20" height="20"/>
  </g>

  <!-- cloud platform for sign -->
  <rect x="300" y="556" width="200" height="24" fill="#FFFFFF"/>
  <rect x="280" y="560" width="240" height="20" fill="#FFFFFF"/>
  <rect x="290" y="566" width="220" height="14" fill="#E8E8E8"/>

  <!-- ABOUT ME sign on cloud -->
  <rect x="316" y="530" width="168" height="34" fill="#8B5A2B" stroke="#5E3C1B" stroke-width="4"/>
  <text x="400" y="554" text-anchor="middle" font-size="16" font-weight="bold" fill="#F2E2BC" font-family="monospace">ABOUT ME</text>

  <!-- post into cloud -->
  <rect x="394" y="564" width="12" height="10" fill="#6E4420"/>

  <!-- border -->
  <rect x="2" y="2" width="796" height="596" fill="none" stroke="#5A5A5A" stroke-width="4"/>
  <rect x="6" y="6" width="788" height="588" fill="none" stroke="#8A8A8A" stroke-width="1" opacity="0.7"/>
</svg>
