<svg xmlns="http://www.w3.org/2000/svg" width="800" height="600" viewBox="0 0 800 600" font-family="'Courier New', monospace">
  <defs>
    <linearGradient id="sky" x1="0" y1="0" x2="0" y2="1">
      <stop offset="0%"  stop-color="#0B0820"/>
      <stop offset="30%" stop-color="#142850"/>
      <stop offset="50%" stop-color="#87CEEB"/>
      <stop offset="66%" stop-color="#4A78B0"/>
      <stop offset="100%" stop-color="#0D0A2E"/>
    </linearGradient>
    <radialGradient id="moon" cx="38%" cy="35%" r="70%">
      <stop offset="0%" stop-color="#F5F3E6"/><stop offset="100%" stop-color="#B9B597"/>
    </radialGradient>
    <radialGradient id="planet" cx="35%" cy="30%" r="80%">
      <stop offset="0%" stop-color="#7FD8E8"/><stop offset="55%" stop-color="#2E8FB8"/><stop offset="100%" stop-color="#163B55"/>
    </radialGradient>
    <radialGradient id="sunglow" cx="50%" cy="50%" r="50%">
      <stop offset="0%" stop-color="#FFF6D6" stop-opacity="0.9"/><stop offset="100%" stop-color="#FFF6D6" stop-opacity="0"/>
    </radialGradient>
    <clipPath id="card"><rect x="2" y="2" width="796" height="596" rx="18" ry="18"/></clipPath>
  </defs>

  <g clip-path="url(#card)">
    <rect x="2" y="2" width="796" height="596" fill="url(#sky)"/>

    <g fill="#FFFFFF">
      <circle cx="60" cy="40" r="1.6"/><circle cx="140" cy="80" r="1.1"/><circle cx="220" cy="34" r="1.8"/>
      <circle cx="300" cy="90" r="1.2"/><circle cx="380" cy="46" r="1.5"/><circle cx="470" cy="30" r="1.1"/>
      <circle cx="540" cy="84" r="1.7"/><circle cx="620" cy="50" r="1.2"/><circle cx="700" cy="96" r="1.6"/>
      <circle cx="760" cy="40" r="1.0"/><circle cx="100" cy="150" r="1.3"/><circle cx="260" cy="160" r="1.0"/>
      <circle cx="420" cy="140" r="1.4"/><circle cx="560" cy="170" r="1.1"/><circle cx="690" cy="150" r="1.5"/>
      <circle cx="740" cy="200" r="1.0"/><circle cx="40" cy="230" r="1.2"/><circle cx="180" cy="250" r="1.6"/>
      <circle cx="330" cy="230" r="1.1"/><circle cx="500" cy="250" r="1.4"/><circle cx="640" cy="240" r="1.2"/>
      <circle cx="760" cy="280" r="1.3"/><circle cx="120" cy="300" r="1.0"/><circle cx="400" cy="310" r="1.2"/>
      <circle cx="600" cy="320" r="1.1"/>
    </g>

    <circle cx="400" cy="430" r="150" fill="url(#sunglow)"/>

    <circle cx="660" cy="120" r="46" fill="url(#moon)"/>
    <circle cx="648" cy="108" r="7" fill="#A8A484" opacity="0.6"/>
    <circle cx="672" cy="132" r="5" fill="#A8A484" opacity="0.5"/>

    <ellipse cx="150" cy="210" rx="70" ry="70" fill="url(#planet)"/>
    <ellipse cx="150" cy="210" rx="100" ry="22" fill="none" stroke="#7FD8E8" stroke-width="3" opacity="0.7" transform="rotate(-18 150 210)"/>
    <ellipse cx="150" cy="210" rx="118" ry="30" fill="none" stroke="#7FD8E8" stroke-width="2" opacity="0.4" transform="rotate(-18 150 210)"/>

    <g transform="translate(330,150)">
      <rect x="-14" y="10" width="22" height="40" rx="4" fill="#9AA7B5"/>
      <rect x="2" y="14" width="40" height="46" rx="8" fill="#F2F4F7"/>
      <rect x="10" y="24" width="24" height="16" rx="3" fill="#2E8FB8"/>
      <rect x="-6" y="18" width="12" height="34" rx="6" fill="#E6E9EE"/>
      <rect x="44" y="20" width="12" height="34" rx="6" fill="#E6E9EE"/>
      <circle cx="-2" cy="54" r="6" fill="#F2F4F7" stroke="#C9CFD8"/>
      <rect x="6" y="-20" width="32" height="36" rx="12" fill="#F2F4F7"/>
      <rect x="11" y="-15" width="22" height="24" rx="9" fill="#1B2A52"/>
      <rect x="14" y="-12" width="9" height="9" rx="4" fill="#7FD8E8" opacity="0.8"/>
      <rect x="6" y="58" width="14" height="22" rx="5" fill="#E6E9EE"/>
      <rect x="28" y="58" width="14" height="22" rx="5" fill="#E6E9EE"/>
      <rect x="4" y="78" width="18" height="8" rx="3" fill="#9AA7B5"/>
      <rect x="26" y="78" width="18" height="8" rx="3" fill="#9AA7B5"/>
    </g>
    <line x1="328" y1="204" x2="300" y2="120" stroke="#C9CFD8" stroke-width="1.5"/>
    <ellipse cx="296" cy="108" rx="20" ry="24" fill="#00D2FF" opacity="0.85"/>
    <ellipse cx="290" cy="100" rx="6" ry="8" fill="#FFFFFF" opacity="0.5"/>

    <g fill="#FFFFFF" opacity="0.85">
      <ellipse cx="120" cy="470" rx="90" ry="26"/><ellipse cx="180" cy="480" rx="70" ry="22"/>
      <ellipse cx="640" cy="490" rx="100" ry="28"/><ellipse cx="560" cy="480" rx="60" ry="20"/>
      <ellipse cx="400" cy="510" rx="120" ry="24" opacity="0.6"/>
    </g>

    <!-- transition into About Me -->
    <rect x="2" y="540" width="796" height="58" fill="#0D0A2E"/>
    <line x1="40" y1="568" x2="760" y2="568" stroke="#00D2FF" stroke-width="2" opacity="0.8"/>
    <text x="400" y="562" text-anchor="middle" font-size="18" font-weight="bold" fill="#00D2FF" letter-spacing="4">ABOUT ME</text>
  </g>

  <rect x="2" y="2" width="796" height="596" rx="18" ry="18" fill="none" stroke="#00D2FF" stroke-width="2" opacity="0.8"/>
</svg>
