<svg width="800" height="900" viewBox="0 0 800 900" xmlns="http://www.w3.org/2000/svg">
  <defs>
    <!-- Space gradient (top) -->
    <linearGradient id="spaceGrad" x1="0" y1="0" x2="0" y2="1">
      <stop offset="0%" stop-color="#0A0A2E"/>
      <stop offset="30%" stop-color="#141452"/>
      <stop offset="55%" stop-color="#1E2466"/>
      <stop offset="100%" stop-color="#14337A"/>
    </linearGradient>
    <!-- Atmosphere gradient (bottom) -->
    <linearGradient id="atmosGrad" x1="0" y1="0" x2="0" y2="1">
      <stop offset="0%" stop-color="#14337A"/>
      <stop offset="35%" stop-color="#3A5A9A"/>
      <stop offset="70%" stop-color="#6A9EC8"/>
      <stop offset="100%" stop-color="#87CEEB"/>
    </linearGradient>
    <radialGradient id="moonSurface" cx="40%" cy="40%">
      <stop offset="0%" stop-color="#FFFDE8"/>
      <stop offset="60%" stop-color="#F5F0D0"/>
      <stop offset="100%" stop-color="#E8DCA0"/>
    </radialGradient>
    <linearGradient id="cardGrad" x1="0" y1="0" x2="0" y2="1">
      <stop offset="0%" stop-color="#0A1228" stop-opacity="0.82"/>
      <stop offset="100%" stop-color="#080E20" stop-opacity="0.92"/>
    </linearGradient>
    <linearGradient id="accentGrad" x1="0" y1="0" x2="1" y2="0">
      <stop offset="0%" stop-color="#00D2FF"/>
      <stop offset="100%" stop-color="#008CCC"/>
    </linearGradient>
  </defs>

  <!-- ==================== ZONA 1: ANGKASA ==================== -->
  <rect width="800" height="400" fill="url(#spaceGrad)"/>

  <!-- Stars -->
  <g fill="#FFFFFF">
    <circle cx="45" cy="30" r="1.8" opacity="0.9"/>
    <circle cx="120" cy="65" r="1.2" opacity="0.6"/>
    <circle cx="200" cy="25" r="2" opacity="0.85"/>
    <circle cx="310" cy="50" r="1" opacity="0.5"/>
    <circle cx="400" cy="35" r="1.5" opacity="0.7"/>
    <circle cx="500" cy="60" r="2.2" opacity="0.9"/>
    <circle cx="580" cy="20" r="1" opacity="0.4"/>
    <circle cx="650" cy="55" r="1.8" opacity="0.8"/>
    <circle cx="720" cy="30" r="1.3" opacity="0.6"/>
    <circle cx="760" cy="70" r="2" opacity="0.75"/>
    <circle cx="80" cy="95" r="1" opacity="0.4"/>
    <circle cx="160" cy="85" r="1.5" opacity="0.7"/>
    <circle cx="250" cy="105" r="0.8" opacity="0.3"/>
    <circle cx="340" cy="80" r="1.2" opacity="0.5"/>
    <circle cx="460" cy="95" r="1.8" opacity="0.8"/>
    <circle cx="550" cy="90" r="1" opacity="0.4"/>
    <circle cx="670" cy="110" r="1.5" opacity="0.6"/>
    <circle cx="740" cy="85" r="1.2" opacity="0.5"/>
    <circle cx="20" cy="150" r="0.8" opacity="0.3"/>
    <circle cx="180" cy="140" r="1.2" opacity="0.5"/>
    <circle cx="350" cy="130" r="0.8" opacity="0.3"/>
    <circle cx="520" cy="145" r="1" opacity="0.4"/>
    <circle cx="700" cy="150" r="0.8" opacity="0.35"/>
  </g>

  <!-- Cross stars -->
  <g stroke="#FFFFFF" stroke-width="1.2" opacity="0.6">
    <line x1="230" y1="48" x2="238" y2="56"/>
    <line x1="238" y1="48" x2="230" y2="56"/>
    <line x1="620" y1="40" x2="628" y2="48"/>
    <line x1="628" y1="40" x2="620" y2="48"/>
    <line x1="480" y1="128" x2="488" y2="136"/>
    <line x1="488" y1="128" x2="480" y2="136"/>
  </g>

  <!-- Moon -->
  <g transform="translate(620,90)">
    <circle cx="0" cy="0" r="48" fill="url(#moonSurface)" stroke="#C8B878" stroke-width="1.5"/>
    <rect x="-18" y="-22" width="12" height="9" rx="2" fill="#D8CCA0" opacity="0.5"/>
    <rect x="6" y="-12" width="8" height="7" rx="1.5" fill="#D8CCA0" opacity="0.4"/>
    <rect x="-8" y="6" width="14" height="9" rx="2" fill="#D8CCA0" opacity="0.35"/>
    <rect x="16" y="12" width="6" height="5" rx="1" fill="#D8CCA0" opacity="0.4"/>
    <rect x="-24" y="16" width="7" height="5" rx="1" fill="#D8CCA0" opacity="0.25"/>
  </g>

  <!-- Small planet -->
  <g transform="translate(105,130)">
    <circle cx="0" cy="0" r="16" fill="#8B5CF6" opacity="0.6"/>
    <ellipse cx="0" cy="2" rx="18" ry="4" fill="none" stroke="#A78BFA" stroke-width="0.8" opacity="0.4" transform="rotate(-15)"/>
  </g>

  <!-- Astronaut with Balloon -->
  <g transform="translate(340,190)">
    <!-- Backpack glow -->
    <circle cx="0" cy="0" r="65" fill="#87CEEB" opacity="0.04"/>

    <!-- Balloon -->
    <ellipse cx="-18" cy="-112" rx="32" ry="40" fill="#FF6B6B" opacity="0.9"/>
    <ellipse cx="-18" cy="-112" rx="32" ry="40" fill="none" stroke="#DD4444" stroke-width="0.8"/>
    <ellipse cx="-28" cy="-126" rx="10" ry="14" fill="#FFFFFF" opacity="0.15"/>
    <ellipse cx="-32" cy="-132" rx="4" ry="6" fill="#FFFFFF" opacity="0.2"/>
    <ellipse cx="-8" cy="-94" rx="6" ry="4" fill="#FFFFFF" opacity="0.08"/>
    <polygon points="-18,-72 -22,-68 -14,-68" fill="#DD4444"/>
    <polygon points="-18,-72 -22,-68 -14,-68" fill="none" stroke="#BB2222" stroke-width="0.5"/>

    <!-- Balloon string (held by left hand) -->
    <path d="M -18,-68 Q -30,-55 -34,-38" fill="none" stroke="#CCCCCC" stroke-width="1.2" stroke-dasharray="5,3"/>
    <path d="M -18,-68 Q -30,-55 -34,-38" fill="none" stroke="#FFFFFF" stroke-width="0.3" opacity="0.3"/>

    <!-- Backpack -->
    <rect x="10" y="-6" width="16" height="30" rx="4" fill="#A8A8A8" stroke="#808080" stroke-width="1"/>
    <rect x="13" y="0" width="10" height="4" rx="1" fill="#909090"/>
    <rect x="13" y="8" width="10" height="4" rx="1" fill="#909090"/>
    <rect x="13" y="16" width="10" height="4" rx="1" fill="#909090"/>
    <path d="M 12,2 Q 18,-8 12,-20" fill="none" stroke="#B0B0B0" stroke-width="2" stroke-linecap="round"/>
    <path d="M 12,2 Q 18,-8 12,-20" fill="none" stroke="#D0D0D0" stroke-width="0.8" opacity="0.5"/>
    <path d="M 14,24 Q 6,26 8,28" fill="none" stroke="#FF4444" stroke-width="1" opacity="0.6"/>

    <!-- Torso -->
    <rect x="-13" y="-14" width="26" height="38" rx="8" fill="#F0F0F0" stroke="#C0C0C0" stroke-width="1.2"/>
    <rect x="-13" y="-14" width="6" height="38" rx="8" fill="#E0E0E0" opacity="0.5"/>
    <rect x="-13" y="-14" width="3" height="38" rx="8" fill="#D0D0D0" opacity="0.3"/>
    <rect x="7" y="-14" width="6" height="38" rx="8" fill="#FFFFFF" opacity="0.15"/>

    <!-- Chest panel -->
    <rect x="-6" y="-8" width="12" height="8" rx="2" fill="#D8D8D8" stroke="#B0B0B0" stroke-width="0.6"/>
    <circle cx="-3" cy="-5" r="1.8" fill="#FF4444"/>
    <circle cx="1" cy="-5" r="1.8" fill="#00D2FF"/>
    <circle cx="5" cy="-5" r="1.8" fill="#7BBC5B"/>
    <rect x="-4" y="-2" width="8" height="3" rx="0.5" fill="#1A1A4E"/>
    <line x1="-3" y1="-1" x2="3" y2="-1" stroke="#00D2FF" stroke-width="0.4" opacity="0.6"/>

    <!-- Chest badge -->
    <rect x="-8" y="2" width="4" height="4" rx="0.5" fill="#DD4444"/>
    <rect x="-8" y="2" width="4" height="4" rx="0.5" fill="none" stroke="#BB2222" stroke-width="0.3"/>
    <line x1="-7" y1="3" x2="-5" y2="3" stroke="#FFFFFF" stroke-width="0.4"/>
    <line x1="-7" y1="4" x2="-5" y2="4" stroke="#FFFFFF" stroke-width="0.4"/>

    <!-- Belt -->
    <rect x="-13" y="-1" width="26" height="4" rx="1" fill="#DD4444" stroke="#BB2222" stroke-width="0.5"/>
    <rect x="-3" y="-1" width="6" height="4" rx="0.5" fill="#FFD700" stroke="#CC9900" stroke-width="0.3"/>
    <rect x="-1" y="0" width="2" height="3" rx="0.3" fill="#CC9900"/>
    <rect x="6" y="0" width="5" height="6" rx="1" fill="#D0D0D0" stroke="#A0A0A0" stroke-width="0.5"/>
    <rect x="-11" y="0" width="5" height="6" rx="1" fill="#D0D0D0" stroke="#A0A0A0" stroke-width="0.5"/>

    <!-- Lower torso -->
    <rect x="-11" y="12" width="22" height="4" rx="2" fill="#D8D8D8" stroke="#C0C0C0" stroke-width="0.3"/>
    <rect x="-11" y="18" width="22" height="4" rx="2" fill="#D8D8D8" stroke="#C0C0C0" stroke-width="0.3"/>

    <!-- Left leg -->
    <path d="M -7,22 Q -14,38 -17,46" fill="none" stroke="#F0F0F0" stroke-width="10" stroke-linecap="round"/>
    <path d="M -7,22 Q -14,38 -17,46" fill="none" stroke="#E0E0E0" stroke-width="4" stroke-linecap="round" opacity="0.5"/>
    <path d="M -12,36 Q -17,39 -14,42" fill="none" stroke="#C0C0C0" stroke-width="2"/>
    <path d="M -17,46 Q -19,52 -18,60" fill="none" stroke="#F0F0F0" stroke-width="10" stroke-linecap="round"/>
    <path d="M -17,46 Q -19,52 -18,60" fill="none" stroke="#E0E0E0" stroke-width="4" stroke-linecap="round" opacity="0.4"/>
    <path d="M -24,58 Q -26,62 -22,65 L -14,65 Q -10,62 -12,58" fill="#A0A0A0" stroke="#808080" stroke-width="0.8"/>
    <path d="M -24,62 Q -26,65 -22,66 L -14,66 Q -10,65 -12,62" fill="#707070"/>
    <line x1="-22" y1="63" x2="-14" y2="63" stroke="#606060" stroke-width="0.4"/>
    <line x1="-23" y1="64" x2="-13" y2="64" stroke="#606060" stroke-width="0.4"/>

    <!-- Right leg -->
    <path d="M 7,22 Q 14,38 17,46" fill="none" stroke="#F0F0F0" stroke-width="10" stroke-linecap="round"/>
    <path d="M 7,22 Q 14,38 17,46" fill="none" stroke="#FFFFFF" stroke-width="4" stroke-linecap="round" opacity="0.3"/>
    <path d="M 12,36 Q 17,39 14,42" fill="none" stroke="#C0C0C0" stroke-width="2"/>
    <path d="M 17,46 Q 19,52 18,60" fill="none" stroke="#F0F0F0" stroke-width="10" stroke-linecap="round"/>
    <path d="M 17,46 Q 19,52 18,60" fill="none" stroke="#FFFFFF" stroke-width="4" stroke-linecap="round" opacity="0.25"/>
    <path d="M 12,58 Q 10,62 14,65 L 22,65 Q 26,62 24,58" fill="#A0A0A0" stroke="#808080" stroke-width="0.8"/>
    <path d="M 12,62 Q 10,65 14,66 L 22,66 Q 26,65 24,62" fill="#707070"/>
    <line x1="14" y1="63" x2="22" y2="63" stroke="#606060" stroke-width="0.4"/>
    <line x1="13" y1="64" x2="23" y2="64" stroke="#606060" stroke-width="0.4"/>

    <!-- Left arm (holding balloon) -->
    <path d="M -10,0 Q -20,-12 -26,-24" fill="none" stroke="#F0F0F0" stroke-width="8" stroke-linecap="round"/>
    <path d="M -10,0 Q -20,-12 -26,-24" fill="none" stroke="#E0E0E0" stroke-width="3" stroke-linecap="round" opacity="0.4"/>
    <path d="M -20,-12 Q -23,-15 -21,-18" fill="none" stroke="#C0C0C0" stroke-width="1.5"/>
    <path d="M -26,-24 Q -30,-30 -33,-36" fill="none" stroke="#F0F0F0" stroke-width="7" stroke-linecap="round"/>
    <path d="M -26,-24 Q -30,-30 -33,-36" fill="none" stroke="#E0E0E0" stroke-width="2.5" stroke-linecap="round" opacity="0.3"/>
    <ellipse cx="-34" cy="-38" rx="5" ry="4.5" fill="#B8B8B8" stroke="#909090" stroke-width="0.8"/>
    <path d="M -37,-39 Q -39,-38 -38,-36" fill="none" stroke="#A0A0A0" stroke-width="1.2" stroke-linecap="round"/>
    <path d="M -36,-40 Q -38,-39 -37,-37" fill="none" stroke="#A0A0A0" stroke-width="1" stroke-linecap="round"/>
    <path d="M -35,-41 Q -37,-40 -36,-38" fill="none" stroke="#A0A0A0" stroke-width="0.8" stroke-linecap="round"/>

    <!-- Right arm (waving) -->
    <path d="M 10,0 Q 20,-6 26,-10" fill="none" stroke="#F0F0F0" stroke-width="8" stroke-linecap="round"/>
    <path d="M 10,0 Q 20,-6 26,-10" fill="none" stroke="#FFFFFF" stroke-width="3" stroke-linecap="round" opacity="0.25"/>
    <path d="M 20,-6 Q 23,-9 22,-12" fill="none" stroke="#C0C0C0" stroke-width="1.5"/>
    <path d="M 26,-10 Q 30,-12 34,-12" fill="none" stroke="#F0F0F0" stroke-width="7" stroke-linecap="round"/>
    <path d="M 26,-10 Q 30,-12 34,-12" fill="none" stroke="#FFFFFF" stroke-width="2" stroke-linecap="round" opacity="0.2"/>
    <path d="M 32,-11 Q 34,-13 33,-15" fill="none" stroke="#C0C0C0" stroke-width="1.2"/>
    <ellipse cx="36" cy="-12" rx="5.5" ry="5" fill="#B8B8B8" stroke="#909090" stroke-width="0.8"/>
    <path d="M 39,-14 Q 42,-13 41,-10" fill="none" stroke="#A0A0A0" stroke-width="1.2" stroke-linecap="round"/>
    <path d="M 40,-12 Q 43,-11 42,-8" fill="none" stroke="#A0A0A0" stroke-width="1" stroke-linecap="round"/>
    <path d="M 39,-10 Q 42,-9 41,-6" fill="none" stroke="#A0A0A0" stroke-width="1" stroke-linecap="round"/>
    <path d="M 38,-8 Q 40,-7 39,-4" fill="none" stroke="#A0A0A0" stroke-width="0.8" stroke-linecap="round"/>

    <!-- Helmet -->
    <circle cx="0" cy="-28" r="18" fill="#F0F0F0" stroke="#C0C0C0" stroke-width="1.2"/>
    <path d="M -18,-28 A 18,18 0 0,1 0,-46" fill="#E0E0E0" opacity="0.3"/>
    <ellipse cx="-4" cy="-40" rx="6" ry="3" fill="#FFFFFF" opacity="0.15"/>

    <!-- Visor -->
    <ellipse cx="0" cy="-27" rx="12" ry="11" fill="#3A7BD5" stroke="#606060" stroke-width="0.8"/>
    <ellipse cx="0" cy="-27" rx="12" ry="11" fill="#1E2466" opacity="0.3"/>
    <ellipse cx="0" cy="-27" rx="11" ry="10" fill="#4A90D9" opacity="0.5"/>
    <ellipse cx="-4" cy="-31" rx="5" ry="6" fill="#FFFFFF" opacity="0.15"/>
    <ellipse cx="-5" cy="-33" rx="2" ry="3" fill="#FFFFFF" opacity="0.25"/>
    <path d="M -8,-20 Q -4,-18 0,-20" fill="none" stroke="#FFFFFF" stroke-width="0.5" opacity="0.12"/>

    <!-- Helmet rim -->
    <path d="M -16,-16 Q 0,-12 16,-16" fill="none" stroke="#C0C0C0" stroke-width="2.5"/>
    <path d="M -16,-16 Q 0,-12 16,-16" fill="none" stroke="#D0D0D0" stroke-width="1" opacity="0.5"/>
    <circle cx="-12" cy="-15" r="0.8" fill="#A0A0A0"/>
    <circle cx="-6" cy="-14" r="0.8" fill="#A0A0A0"/>
    <circle cx="0" cy="-13" r="0.8" fill="#A0A0A0"/>
    <circle cx="6" cy="-14" r="0.8" fill="#A0A0A0"/>
    <circle cx="12" cy="-15" r="0.8" fill="#A0A0A0"/>

    <!-- Antenna -->
    <rect x="10" y="-44" width="4" height="3" rx="0.5" fill="#A0A0A0"/>
    <line x1="12" y1="-44" x2="12" y2="-56" stroke="#B0B0B0" stroke-width="1.2"/>
    <circle cx="12" cy="-58" r="3" fill="#FF4444" opacity="0.9"/>
    <circle cx="12" cy="-58" r="6" fill="#FF4444" opacity="0.15"/>
    <circle cx="12" cy="-58" r="9" fill="#FF4444" opacity="0.06"/>
    <line x1="12" y1="-58" x2="12" y2="-64" stroke="#FF4444" stroke-width="0.5" opacity="0.4"/>
    <path d="M 8,-60 Q 6,-62 8,-64" fill="none" stroke="#FF4444" stroke-width="0.4" opacity="0.3"/>
    <path d="M 16,-60 Q 18,-62 16,-64" fill="none" stroke="#FF4444" stroke-width="0.4" opacity="0.3"/>

    <!-- Floating effects -->
    <path d="M -26,30 Q -22,28 -18,30" fill="none" stroke="#87CEEB" stroke-width="0.6" opacity="0.25"/>
    <path d="M -24,34 Q -20,32 -16,34" fill="none" stroke="#87CEEB" stroke-width="0.4" opacity="0.15"/>
    <path d="M 22,32 Q 18,30 14,32" fill="none" stroke="#87CEEB" stroke-width="0.6" opacity="0.25"/>
    <path d="M 24,36 Q 20,34 16,36" fill="none" stroke="#87CEEB" stroke-width="0.4" opacity="0.15"/>
    <circle cx="-25" cy="15" r="0.6" fill="#87CEEB" opacity="0.2"/>
    <circle cx="28" cy="20" r="0.5" fill="#87CEEB" opacity="0.15"/>
    <circle cx="-20" cy="40" r="0.4" fill="#FFFFFF" opacity="0.1"/>
    <circle cx="25" cy="45" r="0.7" fill="#87CEEB" opacity="0.15"/>
  </g>

  <!-- Title -->
  <text x="400" y="310" text-anchor="middle" font-family="'Courier New',monospace" font-size="34" font-weight="bold" fill="#00D2FF">BRIAN ATMOKO</text>
  <text x="400" y="343" text-anchor="middle" font-family="'Courier New',monospace" font-size="15" fill="#87CEEB" letter-spacing="3">DARI ANGKASA KE INTI BUMI</text>
  <text x="400" y="373" text-anchor="middle" font-family="'Courier New',monospace" font-size="11" fill="#A0C0E0" opacity="0.7" letter-spacing="2">Embedded Systems  •  AI  •  Fullstack</text>

  <!-- ==================== ZONA 2: ATMOSFER ==================== -->
  <rect y="400" width="800" height="420" fill="url(#atmosGrad)"/>

  <!-- Sun beam -->
  <ellipse cx="400" cy="400" rx="200" ry="60" fill="#FFFFFF" opacity="0.05"/>
  <ellipse cx="400" cy="400" rx="120" ry="30" fill="#FFE87C" opacity="0.04"/>

  <!-- High clouds -->
  <g fill="none" stroke="#FFFFFF" stroke-width="1.2" stroke-linecap="round" opacity="0.12">
    <path d="M -10,440 Q 30,434 80,438 Q 130,432 180,436 Q 230,430 280,434"/>
    <path d="M 300,450 Q 350,444 400,448 Q 450,442 500,446 Q 550,440 600,444"/>
    <path d="M 500,435 Q 550,429 600,433 Q 650,427 700,431 Q 750,425 810,429"/>
  </g>

  <!-- Mid clouds -->
  <g fill="#FFFFFF">
    <ellipse cx="120" cy="490" rx="130" ry="18" opacity="0.08"/>
    <ellipse cx="400" cy="485" rx="160" ry="20" opacity="0.1"/>
    <ellipse cx="680" cy="495" rx="120" ry="16" opacity="0.08"/>
  </g>

  <!-- Low clouds (behind card) -->
  <g fill="#FFFFFF">
    <ellipse cx="160" cy="545" rx="140" ry="22" opacity="0.15"/>
    <ellipse cx="640" cy="550" rx="150" ry="20" opacity="0.13"/>
  </g>

  <!-- Clouds below card -->
  <g fill="#FFFFFF">
    <ellipse cx="80" cy="650" rx="140" ry="20" opacity="0.2"/>
    <ellipse cx="300" cy="660" rx="120" ry="16" opacity="0.15"/>
    <ellipse cx="550" cy="655" rx="150" ry="22" opacity="0.18"/>
    <ellipse cx="750" cy="645" rx="110" ry="14" opacity="0.15"/>
    <ellipse cx="200" cy="680" rx="100" ry="10" opacity="0.1"/>
    <ellipse cx="600" cy="675" rx="120" ry="12" opacity="0.12"/>
  </g>
  <!-- ==================== PROFILE CARD ==================== -->
  <g transform="translate(400,580)">
    <!-- Shadow -->
    <rect x="-322" y="-102" width="644" height="364" rx="22" fill="#000000" opacity="0.28"/>
    <!-- Card body -->
    <rect x="-320" y="-100" width="640" height="360" rx="22" fill="url(#cardGrad)"/>
    <rect x="-320" y="-100" width="640" height="360" rx="22" fill="none" stroke="#2D4A7A" stroke-width="1.5"/>
    <!-- Top accent -->
    <rect x="-320" y="-100" width="640" height="5" rx="2.5" fill="url(#accentGrad)" opacity="0.9"/>

    <!-- ===== TOP ROW: avatar + identity ===== -->
    <g transform="translate(-272,-50)">
      <circle cx="0" cy="0" r="42" fill="#1E2466" stroke="#00D2FF" stroke-width="2" opacity="0.92"/>
      <circle cx="0" cy="0" r="42" fill="none" stroke="#00D2FF" stroke-width="0.6" opacity="0.2"/>
      <circle cx="0" cy="-6" r="15" fill="#E8E8E8"/>
      <ellipse cx="0" cy="-5" rx="9.5" ry="8.5" fill="#4A90D9"/>
      <ellipse cx="-3" cy="-7.5" rx="3.5" ry="4" fill="#FFFFFF" opacity="0.22"/>
      <ellipse cx="0" cy="15" rx="20" ry="12" fill="#E8E8E8" opacity="0.85"/>
    </g>

    <text x="-210" y="-72" font-family="'Courier New',monospace" font-size="27" font-weight="bold" fill="#00D2FF" letter-spacing="1">Brian Atmoko</text>
    <text x="-210" y="-46" font-family="'Courier New',monospace" font-size="12" fill="#87CEEB">Embedded Systems &amp; Fullstack Engineer</text>

    <g transform="translate(-210,-24)">
      <rect x="0" y="-10" width="80" height="20" rx="10" fill="#0055AA" opacity="0.35"/>
      <circle cx="10" cy="0" r="3" fill="#00D2FF" opacity="0.85"/>
      <text x="18" y="4" font-family="'Courier New',monospace" font-size="9.5" fill="#A0C0E0" opacity="0.9">Indonesia</text>
    </g>
    <g transform="translate(-114,-24)">
      <rect x="0" y="-10" width="92" height="20" rx="10" fill="#0055AA" opacity="0.35"/>
      <text x="46" y="4" text-anchor="middle" font-family="'Courier New',monospace" font-size="9.5" font-weight="bold" fill="#00D2FF" opacity="0.9">8+ Tahun</text>
    </g>

    <!-- Divider -->
    <line x1="-295" y1="-2" x2="295" y2="-2" stroke="#2D4A7A" stroke-width="1" opacity="0.55"/>

    <!-- ===== LEFT COLUMN: specializations ===== -->
    <text x="-285" y="24" font-family="'Courier New',monospace" font-size="12" font-weight="bold" fill="#00D2FF" letter-spacing="1">Spesialisasi</text>
    <line x1="-285" y1="32" x2="-20" y2="32" stroke="#2D4A7A" stroke-width="0.8" opacity="0.5"/>

    <g font-family="'Courier New',monospace" font-size="9">
      <text x="-285" y="54" fill="#A0C0E0">Drone Systems</text>
      <text x="-118" y="54" fill="#6A9EC8" opacity="0.82">Flight, GCS, autonav</text>
      <rect x="-285" y="59" width="260" height="4" rx="2" fill="#1E2466" opacity="0.55"/>
      <rect x="-285" y="59" width="222" height="4" rx="2" fill="#00D2FF" opacity="0.75"/>

      <text x="-285" y="86" fill="#A0C0E0">Digital ECU</text>
      <text x="-118" y="86" fill="#6A9EC8" opacity="0.82">Engine, CAN, fusion</text>
      <rect x="-285" y="91" width="260" height="4" rx="2" fill="#1E2466" opacity="0.55"/>
      <rect x="-285" y="91" width="236" height="4" rx="2" fill="#00D2FF" opacity="0.75"/>

      <text x="-285" y="118" fill="#A0C0E0">Elektronika</text>
      <text x="-118" y="118" fill="#6A9EC8" opacity="0.82">PCB, power, signal</text>
      <rect x="-285" y="123" width="260" height="4" rx="2" fill="#1E2466" opacity="0.55"/>
      <rect x="-285" y="123" width="245" height="4" rx="2" fill="#00D2FF" opacity="0.75"/>

      <text x="-285" y="150" fill="#A0C0E0">Software</text>
      <text x="-118" y="150" fill="#6A9EC8" opacity="0.82">Desktop, mobile, API</text>
      <rect x="-285" y="155" width="260" height="4" rx="2" fill="#1E2466" opacity="0.55"/>
      <rect x="-285" y="155" width="216" height="4" rx="2" fill="#00D2FF" opacity="0.75"/>
    </g>

    <!-- ===== RIGHT COLUMN: about + languages ===== -->
    <text x="25" y="24" font-family="'Courier New',monospace" font-size="12" font-weight="bold" fill="#00D2FF" letter-spacing="1">Tentang Saya</text>
    <line x1="25" y1="32" x2="290" y2="32" stroke="#2D4A7A" stroke-width="0.8" opacity="0.5"/>

    <text x="25" y="54" font-family="'Courier New',monospace" font-size="9.5" fill="#B0C8E0">Merancang sistem embedded, firmware,</text>
    <text x="25" y="69" font-family="'Courier New',monospace" font-size="9.5" fill="#B0C8E0">dan perangkat lunak. Dari sensor</text>
    <text x="25" y="84" font-family="'Courier New',monospace" font-size="9.5" fill="#B0C8E0">hingga cloud, dari PCB hingga</text>
    <text x="25" y="99" font-family="'Courier New',monospace" font-size="9.5" fill="#B0C8E0">dashboard.</text>

    <text x="25" y="128" font-family="'Courier New',monospace" font-size="11" font-weight="bold" fill="#87CEEB">Bahasa Favorit</text>
    <g transform="translate(25,140)">
      <rect x="0" y="0" width="50" height="22" rx="6" fill="#00599C"/>
      <text x="25" y="14" text-anchor="middle" font-family="'Courier New',monospace" font-size="10.5" font-weight="bold" fill="#FFFFFF">C++</text>
      <rect x="60" y="0" width="50" height="22" rx="6" fill="#B3470A"/>
      <text x="85" y="14" text-anchor="middle" font-family="'Courier New',monospace" font-size="10.5" font-weight="bold" fill="#FFFFFF">Java</text>
      <rect x="120" y="0" width="54" height="22" rx="6" fill="#306998"/>
      <text x="147" y="14" text-anchor="middle" font-family="'Courier New',monospace" font-size="10.5" font-weight="bold" fill="#FFFFFF">Python</text>
    </g>

    <!-- Quote (well inside card) -->
    <text x="0" y="200" text-anchor="middle" font-family="'Courier New',monospace" font-size="9.5" fill="#6A9EC8" opacity="0.55" font-style="italic">"Dari hardware ke cloud, bangun di setiap lapisan."</text>
  </g>

  <!-- Foreground clouds (subtle) -->
  <g fill="#FFFFFF" opacity="0.08">
    <ellipse cx="60" cy="868" rx="120" ry="14" opacity="0.08"/>
    <ellipse cx="760" cy="863" rx="100" ry="10" opacity="0.08"/>
  </g>

  <!-- Light rays -->
  <g stroke="#FFFFFF" stroke-width="0.5" opacity="0.03">
    <line x1="120" y1="400" x2="-20" y2="820"/>
    <line x1="180" y1="400" x2="80" y2="820"/>
    <line x1="240" y1="400" x2="180" y2="820"/>
    <line x1="300" y1="400" x2="280" y2="820"/>
    <line x1="360" y1="400" x2="380" y2="820"/>
  </g>
</svg>
