<svg xmlns="http://www.w3.org/2000/svg" width="800" height="600" viewBox="0 0 800 600">
  <!-- ===== PERMUKAAN ===== -->
  <rect x="0" y="0"   width="800" height="170" fill="#88CCEA"/>
  <rect x="0" y="170" width="800" height="16"  fill="#5FB34A"/>
  <rect x="0" y="186" width="800" height="16"  fill="#8B5A2B"/>
  <rect x="0" y="202" width="800" height="18"  fill="#8A8A8A"/>

  <!-- sun + clouds -->
  <rect x="680" y="24" width="40" height="40" fill="#FCD34D"/><rect x="692" y="36" width="16" height="16" fill="#FFE9A0"/>
  <g fill="#FFFFFF">
    <rect x="90"  y="50" width="16" height="16"/><rect x="106" y="50" width="16" height="16"/><rect x="90" y="66" width="16" height="16"/>
    <rect x="280" y="70" width="16" height="16"/><rect x="296" y="70" width="16" height="16"/>
    <rect x="480" y="40" width="16" height="16"/><rect x="496" y="40" width="16" height="16"/><rect x="480" y="56" width="16" height="16"/>
  </g>

  <!-- trees -->
  <g>
    <rect x="70"  y="130" width="10" height="40" fill="#6E4420"/>
    <rect x="56"  y="100" width="38" height="34" fill="#4A8B3A"/><rect x="64" y="108" width="22" height="18" fill="#3A6E2C"/>
    <rect x="724" y="130" width="10" height="40" fill="#6E4420"/>
    <rect x="710" y="100" width="38" height="34" fill="#4A8B3A"/><rect x="718" y="108" width="22" height="18" fill="#3A6E2C"/>
  </g>

  <!-- crafting table -->
  <rect x="290" y="176" width="28" height="18" fill="#8B5A2B"/>
  <rect x="290" y="174" width="28" height="4"  fill="#B08952"/>
  <rect x="296" y="180" width="4"  height="6"  fill="#6E4420"/>
  <rect x="302" y="180" width="4"  height="6"  fill="#6E4420"/>
  <rect x="308" y="180" width="4"  height="6"  fill="#6E4420"/>

  <!-- furnace -->
  <rect x="510" y="176" width="24" height="18" fill="#6E6E6E"/>
  <rect x="510" y="174" width="24" height="4"  fill="#8A8A8A"/>
  <rect x="516" y="182" width="12" height="8"  fill="#1C1C28"/>

  <!-- chest -->
  <rect x="560" y="178" width="22" height="16" fill="#8B5A2B"/>
  <rect x="560" y="178" width="22" height="4"  fill="#5E3C1B"/>
  <rect x="568" y="186" width="6"  height="4"  fill="#FCD34D"/>

  <!-- Steve builder (with blueprint) -->
  <g>
    <rect x="340" y="144" width="28" height="8"  fill="#5E3C1B"/>
    <rect x="340" y="152" width="28" height="14" fill="#E0B080"/>
    <rect x="346" y="154" width="18" height="8"  fill="#1FB6D8"/>
    <rect x="342" y="166" width="24" height="20" fill="#F2F4F7"/>
    <rect x="348" y="170" width="12" height="8"  fill="#2E8FB8"/>
    <rect x="332" y="168" width="10" height="18" fill="#E6E9EE"/>
    <rect x="366" y="168" width="10" height="18" fill="#E6E9EE"/>
    <rect x="342" y="186" width="10" height="12" fill="#E6E9EE"/>
    <rect x="356" y="186" width="10" height="12" fill="#E6E9EE"/>
    <rect x="374" y="162" width="14" height="18" fill="#FFFFFF"/>
    <rect x="376" y="166" width="10" height="4"  fill="#1FB6D8"/>
    <line x1="376" y1="172" x2="386" y2="172" stroke="#1FB6D8" stroke-width="1"/>
  </g>

  <!-- house -->
  <rect x="410" y="128" width="80" height="42" fill="#8B5A2B"/>
  <rect x="414" y="132" width="10" height="4" fill="#6E4420"/>
  <rect x="426" y="132" width="10" height="4" fill="#6E4420"/>
  <rect x="438" y="132" width="10" height="4" fill="#6E4420"/>
  <rect x="450" y="132" width="10" height="4" fill="#6E4420"/>
  <rect x="462" y="132" width="10" height="4" fill="#6E4420"/>
  <rect x="474" y="132" width="10" height="4" fill="#6E4420"/>
  <rect x="406" y="118" width="88" height="12" fill="#5E3C1B"/>
  <rect x="412" y="110" width="76" height="8" fill="#4A2E0A"/>
  <rect x="444" y="148" width="12" height="22" fill="#5E3C1B"/>
  <rect x="453" y="158" width="2" height="4" fill="#FCD34D"/>
  <rect x="418" y="138" width="16" height="16" fill="#88CCEA"/>
  <rect x="470" y="138" width="16" height="16" fill="#88CCEA"/>

  <!-- ===== PANEL SKILLS ===== -->
  <rect x="0"   y="220" width="800" height="380" fill="#1C1C28"/>
  <rect x="4"   y="224" width="792" height="372" fill="#3A3A3A"/>
  <rect x="6"   y="226" width="788" height="368" fill="#2E2E42"/>
  <rect x="2"   y="222" width="796" height="376" fill="none" stroke="#5A5A5A" stroke-width="2"/>
  <rect x="8"   y="228" width="784" height="364" fill="none" stroke="#8A8A8A" stroke-width="2"/>

  <!-- header -->
  <rect x="30" y="244" width="36" height="36" fill="#9AA7B5"/>
  <rect x="36" y="252" width="24" height="10" fill="#1FB6D8"/>
  <rect x="44" y="236" width="4"  height="8"  fill="#9AA7B5"/>
  <rect x="42" y="232" width="8"  height="6"  fill="#FCD34D"/>
  <text x="78" y="260" font-size="22" font-weight="bold" fill="#FCD34D" font-family="monospace">TECH STACK</text>
  <text x="78" y="278" font-size="10" fill="#1FB6D8" font-family="monospace">Languages . Frameworks . Platforms . Tools</text>
  <rect x="30" y="290" width="740" height="2" fill="#5A5A5A"/>

  <!-- row 1: Languages -->
  <rect x="30"  y="306" width="360" height="68" fill="#23233A" stroke="#4A4A5A" stroke-width="2"/>
  <rect x="42"  y="322" width="40"  height="38" fill="#FCD34D" stroke="#B89B20" stroke-width="2"/>
  <rect x="50"  y="334" width="24" height="16" fill="#FFFFFF"/>
  <text x="92" y="330" font-size="13" font-weight="bold" fill="#FFFFFF" font-family="monospace">Languages</text>
  <text x="92" y="348" font-size="10" fill="#A0C0E0" font-family="monospace">C++  Java  Python  JS/TS</text>

  <!-- row 1: Frameworks -->
  <rect x="410" y="306" width="360" height="68" fill="#23233A" stroke="#4A4A5A" stroke-width="2"/>
  <rect x="422" y="322" width="40"  height="38" fill="#2E8FB8" stroke="#1E5A7A" stroke-width="2"/>
  <rect x="430" y="330" width="24" height="22" fill="#FFFFFF"/>
  <rect x="436" y="340" width="4"  height="4"  fill="#2E8FB8"/>
  <text x="472" y="330" font-size="13" font-weight="bold" fill="#FFFFFF" font-family="monospace">Frameworks</text>
  <text x="472" y="348" font-size="10" fill="#A0C0E0" font-family="monospace">Qt  TensorFlow  ONNX  OpenCV</text>

  <!-- row 2: Platforms -->
  <rect x="30"  y="392" width="360" height="68" fill="#23233A" stroke="#4A4A5A" stroke-width="2"/>
  <rect x="42"  y="408" width="40"  height="38" fill="#5FB34A" stroke="#3A7A2A" stroke-width="2"/>
  <rect x="50"  y="416" width="12" height="22" fill="#FFFFFF"/><rect x="64" y="416" width="8" height="22" fill="#1C1C28"/>
  <text x="92" y="416" font-size="13" font-weight="bold" fill="#FFFFFF" font-family="monospace">Platforms</text>
  <text x="92" y="434" font-size="10" fill="#A0C0E0" font-family="monospace">STM32  Arduino  RPi  Linux</text>

  <!-- row 2: Tools -->
  <rect x="410" y="392" width="360" height="68" fill="#23233A" stroke="#4A4A5A" stroke-width="2"/>
  <rect x="422" y="408" width="40"  height="38" fill="#C51A4A" stroke="#8A0A2A" stroke-width="2"/>
  <rect x="430" y="416" width="8"  height="22" fill="#FFFFFF"/><rect x="440" y="416" width="8" height="6" fill="#FFFFFF"/>
  <rect x="440" y="432" width="16" height="6" fill="#FFFFFF"/>
  <text x="472" y="416" font-size="13" font-weight="bold" fill="#FFFFFF" font-family="monospace">Tools &amp; DevOps</text>
  <text x="472" y="434" font-size="10" fill="#A0C0E0" font-family="monospace">Git  Docker  K8s  Prometheus</text>

  <!-- divider -->
  <rect x="30" y="476" width="740" height="2" fill="#5A5A5A"/>

  <!-- flagship: MOKO-AI -->
  <rect x="30" y="492" width="740" height="96" fill="#23233A" stroke="#FCD34D" stroke-width="2"/>
  <rect x="28" y="490" width="744" height="100" fill="none" stroke="#8A8A8A" stroke-width="1" opacity="0.3"/>
  <rect x="42" y="504" width="40" height="40" fill="#1FB6D8" stroke="#0E5A7A" stroke-width="2"/>
  <rect x="48" y="512" width="28" height="10" fill="#FFFFFF"/>
  <rect x="56" y="496" width="4"  height="8"  fill="#1FB6D8"/>
  <rect x="54" y="492" width="8"  height="6"  fill="#9AA7B5"/>
  <text x="92" y="512" font-size="13" font-weight="bold" fill="#FCD34D" font-family="monospace">MOKO-AI (Project Flagship)</text>
  <text x="92" y="530" font-size="10" fill="#A0C0E0" font-family="monospace">AI terintegrasi: computer vision, NLP, autoML, edge inference</text>
  <text x="92" y="548" font-size="10" fill="#A0C0E0" font-family="monospace">Built with C++, Python, Qt, TensorFlow, ONNX, STM32</text>

  <!-- creeper -->
  <g>
    <rect x="650" y="496" width="100" height="100" fill="#4A8B3A" stroke="#3A6E2C" stroke-width="2"/>
    <rect x="670" y="516" width="18" height="18" fill="#1C1C28"/>
    <rect x="712" y="516" width="18" height="18" fill="#1C1C28"/>
    <rect x="682" y="548" width="10" height="10" fill="#1C1C28"/>
    <rect x="702" y="548" width="10" height="10" fill="#1C1C28"/>
    <rect x="722" y="548" width="10" height="10" fill="#1C1C28"/>
    <rect x="692" y="568" width="20" height="10" fill="#1C1C28"/>
  </g>

  <!-- outer border -->
  <rect x="2" y="2" width="796" height="596" fill="none" stroke="#5A5A5A" stroke-width="4"/>
</svg>
