<svg xmlns="http://www.w3.org/2000/svg" width="800" height="600" viewBox="0 0 800 600" font-family="'Courier New', monospace">
  <!-- ===== PERMUKAAN: langit + tanah ===== -->
  <rect x="0" y="0"   width="800" height="180" fill="#88CCEA"/>
  <rect x="0" y="180" width="800" height="16"  fill="#5FB34A"/>
  <rect x="0" y="196" width="800" height="24"  fill="#8B5A2B"/>

  <!-- sun -->
  <rect x="690" y="24" width="40" height="40" fill="#FCD34D"/><rect x="702" y="36" width="16" height="16" fill="#FFE9A0"/>
  <!-- clouds -->
  <g fill="#FFFFFF">
    <rect x="110" y="55" width="16" height="16"/><rect x="126" y="55" width="16" height="16"/><rect x="110" y="71" width="16" height="16"/>
    <rect x="300" y="45" width="16" height="16"/><rect x="316" y="45" width="16" height="16"/>
  </g>
  <!-- trees -->
  <rect x="70"  y="150" width="10" height="30" fill="#6E4420"/>
  <rect x="56"  y="120" width="38" height="34" fill="#4A8B3A"/><rect x="64" y="128" width="22" height="18" fill="#3A6E2C"/>
  <rect x="724" y="150" width="10" height="30" fill="#6E4420"/>
  <rect x="710" y="120" width="38" height="34" fill="#4A8B3A"/><rect x="718" y="128" width="22" height="18" fill="#3A6E2C"/>

  <!-- Steve mendarat -->
  <g>
    <rect x="396" y="140" width="32" height="8"  fill="#5E3C1B"/>
    <rect x="396" y="148" width="32" height="16" fill="#E0B080"/>
    <rect x="402" y="150" width="20" height="10" fill="#1FB6D8"/>
    <rect x="398" y="164" width="28" height="24" fill="#F2F4F7"/>
    <rect x="404" y="168" width="16" height="10" fill="#2E8FB8"/>
    <rect x="386" y="168" width="10" height="20" fill="#E6E9EE"/>
    <rect x="424" y="168" width="10" height="20" fill="#E6E9EE"/>
    <rect x="398" y="188" width="12" height="14" fill="#E6E9EE"/>
    <rect x="414" y="188" width="12" height="14" fill="#E6E9EE"/>
  </g>

  <!-- sign ZONA 3 -->
  <rect x="500" y="158" width="200" height="46" fill="#8B5A2B" stroke="#5E3C1B" stroke-width="4"/>
  <text x="600" y="178" text-anchor="middle" font-size="15" font-weight="bold" fill="#FCD34D">ZONA 3</text>
  <text x="600" y="196" text-anchor="middle" font-size="10" fill="#1FB6D8" letter-spacing="1">PERMUKAAN</text>

  <!-- ===== PANEL MOKO-AI ===== -->
  <rect x="0"   y="220" width="800" height="380" fill="#1C1C28"/>
  <rect x="10"  y="230" width="780" height="360" fill="#2A2A3A"/>
  <rect x="4"   y="224" width="792" height="372" fill="none" stroke="#8A8A8A" stroke-width="4"/>
  <rect x="9"   y="229" width="782" height="362" fill="none" stroke="#B8B8B8" stroke-width="1" opacity="0.5"/>

  <!-- header -->
  <rect x="40" y="250" width="40" height="36" fill="#9AA7B5"/>
  <rect x="46" y="258" width="28" height="12" fill="#1FB6D8"/>
  <rect x="56" y="242" width="4"  height="8"  fill="#9AA7B5"/>
  <rect x="54" y="238" width="8"  height="6"  fill="#FCD34D"/>
  <text x="92" y="264" font-size="24" font-weight="bold" fill="#FCD34D">MOKO-AI</text>
  <text x="92" y="286" font-size="11" fill="#1FB6D8">Integrated AI - Inference . Vision . NLP . AutoML</text>
  <line x1="40" y1="302" x2="760" y2="302" stroke="#8A8A8A" stroke-width="2"/>

  <!-- slot helper: 2x2 -->
  <!-- Slot 1: Inference Engine -->
  <rect x="40"  y="320" width="350" height="72" fill="#23233A" stroke="#4A4A5A" stroke-width="2"/>
  <rect x="52"  y="336" width="40"  height="40" fill="#2E8FB8"/>
  <g fill="#FFFFFF">
    <rect x="60" y="344" width="8" height="8"/><rect x="72" y="344" width="8" height="8"/><rect x="84" y="344" width="8" height="8"/>
    <rect x="60" y="356" width="8" height="8"/><rect x="72" y="356" width="8" height="8"/><rect x="84" y="356" width="8" height="8"/>
    <rect x="60" y="368" width="8" height="8"/><rect x="72" y="368" width="8" height="8"/><rect x="84" y="368" width="8" height="8"/>
  </g>
  <text x="102" y="350" font-size="13" font-weight="bold" fill="#FFFFFF">Inference Engine</text>
  <text x="102" y="370" font-size="10" fill="#A0C0E0">Jalankan model on-edge &amp; cloud</text>

  <!-- Slot 2: Vision Pipeline -->
  <rect x="410" y="320" width="350" height="72" fill="#23233A" stroke="#4A4A5A" stroke-width="2"/>
  <rect x="422" y="336" width="40"  height="40" fill="#5FB34A"/>
  <rect x="430" y="348" width="24" height="16" fill="#FFFFFF"/>
  <rect x="438" y="352" width="10" height="8"  fill="#1FB6D8"/>
  <rect x="442" y="354" width="4"  height="4"  fill="#1C1C28"/>
  <text x="472" y="350" font-size="13" font-weight="bold" fill="#FFFFFF">Vision Pipeline</text>
  <text x="472" y="370" font-size="10" fill="#A0C0E0">Deteksi objek &amp; pelacakan</text>

  <!-- Slot 3: NLP -->
  <rect x="40"  y="410" width="350" height="72" fill="#23233A" stroke="#4A4A5A" stroke-width="2"/>
  <rect x="52"  y="426" width="40"  height="40" fill="#FCD34D"/>
  <rect x="58"  y="434" width="28" height="20" fill="#FFFFFF"/>
  <rect x="64"  y="440" width="6"  height="6"  fill="#1FB6D8"/>
  <rect x="74"  y="440" width="6"  height="6"  fill="#1FB6D8"/>
  <text x="102" y="440" font-size="13" font-weight="bold" fill="#FFFFFF">NLP</text>
  <text x="102" y="460" font-size="10" fill="#A0C0E0">Pemahaman &amp; generasi teks</text>

  <!-- Slot 4: AutoML -->
  <rect x="410" y="410" width="350" height="72" fill="#23233A" stroke="#4A4A5A" stroke-width="2"/>
  <rect x="422" y="426" width="40"  height="40" fill="#C51A4A"/>
  <rect x="438" y="432" width="8"  height="28" fill="#FFFFFF"/>
  <rect x="426" y="444" width="28" height="8"  fill="#FFFFFF"/>
  <text x="472" y="440" font-size="13" font-weight="bold" fill="#FFFFFF">AutoML</text>
  <text x="472" y="460" font-size="10" fill="#A0C0E0">Latih &amp; optimalkan otomatis</text>

  <!-- footer: robot mascot + stack -->
  <rect x="60" y="506" width="60" height="54" fill="#9AA7B5"/>
  <rect x="70" y="520" width="40" height="18" fill="#1FB6D8"/>
  <rect x="72" y="546" width="36" height="6"  fill="#1C1C28"/>
  <rect x="86" y="494" width="4"  height="12" fill="#9AA7B5"/>
  <rect x="82" y="488" width="12" height="8"  fill="#FCD34D"/>
  <rect x="54" y="520" width="6"  height="18" fill="#9AA7B5"/>
  <rect x="116" y="520" width="6" height="18" fill="#9AA7B5"/>
  <text x="60" y="578" font-size="10" fill="#87CEEB">MOKO-AI CORE</text>

  <text x="440" y="524" font-size="11" font-weight="bold" fill="#87CEEB">BUILT WITH</text>
  <text x="440" y="544" font-size="10" fill="#A0C0E0">PyTorch . ONNX . OpenCV</text>
  <text x="440" y="562" font-size="10" fill="#A0C0E0">Hugging Face . TensorRT</text>

  <!-- creeper flavor -->
  <g>
    <rect x="640" y="500" width="100" height="100" fill="#4A8B3A"/>
    <rect x="660" y="520" width="18" height="18" fill="#1C1C28"/>
    <rect x="702" y="520" width="18" height="18" fill="#1C1C28"/>
    <rect x="672" y="552" width="10" height="10" fill="#1C1C28"/>
    <rect x="692" y="552" width="10" height="10" fill="#1C1C28"/>
    <rect x="712" y="552" width="10" height="10" fill="#1C1C28"/>
    <rect x="682" y="572" width="20" height="10" fill="#1C1C28"/>
  </g>

  <!-- border frame -->
  <rect x="2" y="2" width="796" height="596" fill="none" stroke="#5A5A5A" stroke-width="4"/>
</svg>
