<svg xmlns="http://www.w3.org/2000/svg" width="800" height="600" viewBox="0 0 800 600">
  <!-- ===== PERMUKAAN ===== -->
  <rect x="0" y="0"   width="800" height="170" fill="#88CCEA"/>
  <rect x="0" y="170" width="800" height="16"  fill="#5FB34A"/>
  <rect x="0" y="186" width="800" height="16"  fill="#8B5A2B"/>
  <rect x="0" y="202" width="800" height="18"  fill="#8A8A8A"/>

  <!-- sun + clouds -->
  <rect x="680" y="24" width="40" height="40" fill="#FCD34D"/><rect x="692" y="36" width="16" height="16" fill="#FFE9A0"/>
  <g fill="#FFFFFF">
    <rect x="90"  y="50" width="16" height="16"/><rect x="106" y="50" width="16" height="16"/><rect x="90" y="66" width="16" height="16"/>
    <rect x="280" y="70" width="16" height="16"/><rect x="296" y="70" width="16" height="16"/>
    <rect x="480" y="40" width="16" height="16"/><rect x="496" y="40" width="16" height="16"/><rect x="480" y="56" width="16" height="16"/>
  </g>

  <!-- trees -->
  <g>
    <rect x="70"  y="130" width="10" height="40" fill="#6E4420"/>
    <rect x="56"  y="100" width="38" height="34" fill="#4A8B3A"/><rect x="64" y="108" width="22" height="18" fill="#3A6E2C"/>
    <rect x="724" y="130" width="10" height="40" fill="#6E4420"/>
    <rect x="710" y="100" width="38" height="34" fill="#4A8B3A"/><rect x="718" y="108" width="22" height="18" fill="#3A6E2C"/>
  </g>

  <!-- crafting table -->
  <rect x="290" y="176" width="28" height="18" fill="#8B5A2B"/>
  <rect x="290" y="174" width="28" height="4"  fill="#B08952"/>
  <rect x="296" y="180" width="4"  height="6"  fill="#6E4420"/>
  <rect x="302" y="180" width="4"  height="6"  fill="#6E4420"/>
  <rect x="308" y="180" width="4"  height="6"  fill="#6E4420"/>

  <!-- furnace -->
  <rect x="510" y="176" width="24" height="18" fill="#6E6E6E"/>
  <rect x="510" y="174" width="24" height="4"  fill="#8A8A8A"/>
  <rect x="516" y="182" width="12" height="8"  fill="#1C1C28"/>

  <!-- chest -->
  <rect x="560" y="178" width="22" height="16" fill="#8B5A2B"/>
  <rect x="560" y="178" width="22" height="4"  fill="#5E3C1B"/>
  <rect x="568" y="186" width="6"  height="4"  fill="#FCD34D"/>

  <!-- Steve builder (dengan blueprint) -->
  <g>
    <rect x="340" y="144" width="28" height="8"  fill="#5E3C1B"/>
    <rect x="340" y="152" width="28" height="14" fill="#E0B080"/>
    <rect x="346" y="154" width="18" height="8"  fill="#1FB6D8"/>
    <rect x="342" y="166" width="24" height="20" fill="#F2F4F7"/>
    <rect x="348" y="170" width="12" height="8"  fill="#2E8FB8"/>
    <rect x="332" y="168" width="10" height="18" fill="#E6E9EE"/>
    <rect x="366" y="168" width="10" height="18" fill="#E6E9EE"/>
    <rect x="342" y="186" width="10" height="12" fill="#E6E9EE"/>
    <rect x="356" y="186" width="10" height="12" fill="#E6E9EE"/>
    <!-- blueprint in right hand -->
    <rect x="374" y="162" width="14" height="18" fill="#FFFFFF"/>
    <rect x="376" y="166" width="10" height="4"  fill="#1FB6D8"/>
    <line x1="376" y1="172" x2="386" y2="172" stroke="#1FB6D8" stroke-width="1"/>
  </g>

  <!-- sign -->
  <rect x="420" y="156" width="160" height="46" fill="#8B5A2B" stroke="#5E3C1B" stroke-width="4"/>
  <text x="500" y="176" text-anchor="middle" font-size="14" font-weight="bold" fill="#FCD34D" font-family="monospace">ZONA 3</text>
  <text x="500" y="194" text-anchor="middle" font-size="10" fill="#1FB6D8" font-family="monospace">PERMUKAAN</text>

  <!-- ===== PANEL MOKO-AI (creative inventory style) ===== -->
  <rect x="0"   y="220" width="800" height="380" fill="#1C1C28"/>
  <rect x="4"   y="224" width="792" height="372" fill="#3A3A3A"/>
  <rect x="6"   y="226" width="788" height="368" fill="#2E2E42"/>
  <rect x="2"   y="222" width="796" height="376" fill="none" stroke="#5A5A5A" stroke-width="2"/>
  <rect x="8"   y="228" width="784" height="364" fill="none" stroke="#8A8A8A" stroke-width="2"/>
  <line x1="10" y1="230" x2="790" y2="230" stroke="#B8B8B8" stroke-width="1"/>
  <line x1="10" y1="230" x2="10" y2="588" stroke="#B8B8B8" stroke-width="1"/>

  <!-- header -->
  <rect x="30" y="244" width="36" height="36" fill="#9AA7B5"/>
  <rect x="36" y="252" width="24" height="10" fill="#1FB6D8"/>
  <rect x="44" y="236" width="4"  height="8"  fill="#9AA7B5"/>
  <rect x="42" y="232" width="8"  height="6"  fill="#FCD34D"/>
  <text x="78" y="260" font-size="22" font-weight="bold" fill="#FCD34D" font-family="monospace">MOKO-AI</text>
  <text x="78" y="278" font-size="10" fill="#1FB6D8" font-family="monospace">Integrated AI - Inference . Vision . NLP . AutoML</text>
  <rect x="30" y="290" width="740" height="2" fill="#5A5A5A"/>

  <!-- 2x2 item slots -->
  <!-- Slot 1 : Inference -->
  <rect x="30"  y="306" width="360" height="72" fill="#23233A" stroke="#4A4A5A" stroke-width="2"/>
  <rect x="28"  y="304" width="364" height="76" fill="none" stroke="#8A8A8A" stroke-width="1" opacity="0.3"/>
  <rect x="42"  y="322" width="40"  height="40" fill="#2E8FB8" stroke="#1E5A7A" stroke-width="2"/>
  <g fill="#FFFFFF">
    <rect x="50" y="330" width="8" height="8"/><rect x="62" y="330" width="8" height="8"/><rect x="74" y="330" width="8" height="8"/>
    <rect x="50" y="342" width="8" height="8"/><rect x="62" y="342" width="8" height="8"/><rect x="74" y="342" width="8" height="8"/>
    <rect x="50" y="354" width="8" height="8"/><rect x="62" y="354" width="8" height="8"/><rect x="74" y="354" width="8" height="8"/>
  </g>
  <text x="92" y="336" font-size="13" font-weight="bold" fill="#FFFFFF" font-family="monospace">Inference Engine</text>
  <text x="92" y="354" font-size="10" fill="#A0C0E0" font-family="monospace">Jalankan model on-edge &amp; cloud</text>

  <!-- Slot 2 : Vision -->
  <rect x="410" y="306" width="360" height="72" fill="#23233A" stroke="#4A4A5A" stroke-width="2"/>
  <rect x="408" y="304" width="364" height="76" fill="none" stroke="#8A8A8A" stroke-width="1" opacity="0.3"/>
  <rect x="422" y="322" width="40"  height="40" fill="#5FB34A" stroke="#3A7A2A" stroke-width="2"/>
  <rect x="430" y="334" width="24" height="16" fill="#FFFFFF"/>
  <rect x="438" y="338" width="8"  height="8"  fill="#1FB6D8"/>
  <rect x="440" y="340" width="4"  height="4"  fill="#1C1C28"/>
  <text x="472" y="336" font-size="13" font-weight="bold" fill="#FFFFFF" font-family="monospace">Vision Pipeline</text>
  <text x="472" y="354" font-size="10" fill="#A0C0E0" font-family="monospace">Deteksi objek &amp; pelacakan</text>

  <!-- Slot 3 : NLP -->
  <rect x="30"  y="396" width="360" height="72" fill="#23233A" stroke="#4A4A5A" stroke-width="2"/>
  <rect x="28"  y="394" width="364" height="76" fill="none" stroke="#8A8A8A" stroke-width="1" opacity="0.3"/>
  <rect x="42"  y="412" width="40"  height="40" fill="#FCD34D" stroke="#B89B20" stroke-width="2"/>
  <rect x="48"  y="420" width="28" height="20" fill="#FFFFFF"/>
  <rect x="54"  y="426" width="6"  height="6"  fill="#1FB6D8"/>
  <rect x="64"  y="426" width="6"  height="6"  fill="#1FB6D8"/>
  <text x="92" y="426" font-size="13" font-weight="bold" fill="#FFFFFF" font-family="monospace">NLP</text>
  <text x="92" y="444" font-size="10" fill="#A0C0E0" font-family="monospace">Pemahaman &amp; generasi teks</text>

  <!-- Slot 4 : AutoML -->
  <rect x="410" y="396" width="360" height="72" fill="#23233A" stroke="#4A4A5A" stroke-width="2"/>
  <rect x="408" y="394" width="364" height="76" fill="none" stroke="#8A8A8A" stroke-width="1" opacity="0.3"/>
  <rect x="422" y="412" width="40"  height="40" fill="#C51A4A" stroke="#8A0A2A" stroke-width="2"/>
  <rect x="438" y="418" width="8"  height="28" fill="#FFFFFF"/>
  <rect x="426" y="430" width="28" height="8"  fill="#FFFFFF"/>
  <text x="472" y="426" font-size="13" font-weight="bold" fill="#FFFFFF" font-family="monospace">AutoML</text>
  <text x="472" y="444" font-size="10" fill="#A0C0E0" font-family="monospace">Latih &amp; optimalkan otomatis</text>

  <!-- divider -->
  <rect x="30" y="482" width="740" height="2" fill="#5A5A5A"/>

  <!-- footer -->
  <rect x="30" y="500" width="60" height="54" fill="#9AA7B5" stroke="#6A7A8A" stroke-width="2"/>
  <rect x="40" y="514" width="40" height="18" fill="#1FB6D8"/>
  <rect x="42" y="540" width="36" height="6"  fill="#1C1C28"/>
  <rect x="56" y="488" width="4"  height="12" fill="#9AA7B5"/>
  <rect x="52" y="482" width="12" height="8"  fill="#FCD34D"/>
  <rect x="24" y="514" width="6"  height="18" fill="#9AA7B5"/>
  <rect x="86" y="514" width="6"  height="18" fill="#9AA7B5"/>
  <text x="30" y="572" font-size="10" fill="#87CEEB" font-family="monospace">MOKO-AI CORE</text>

  <text x="440" y="508" font-size="11" font-weight="bold" fill="#87CEEB" font-family="monospace">BUILT WITH</text>
  <text x="440" y="526" font-size="10" fill="#A0C0E0" font-family="monospace">PyTorch . ONNX . OpenCV</text>
  <text x="440" y="542" font-size="10" fill="#A0C0E0" font-family="monospace">Hugging Face . TensorRT</text>

  <!-- creeper -->
  <g>
    <rect x="640" y="496" width="100" height="100" fill="#4A8B3A" stroke="#3A6E2C" stroke-width="2"/>
    <rect x="660" y="516" width="18" height="18" fill="#1C1C28"/>
    <rect x="702" y="516" width="18" height="18" fill="#1C1C28"/>
    <rect x="672" y="548" width="10" height="10" fill="#1C1C28"/>
    <rect x="692" y="548" width="10" height="10" fill="#1C1C28"/>
    <rect x="712" y="548" width="10" height="10" fill="#1C1C28"/>
    <rect x="682" y="568" width="20" height="10" fill="#1C1C28"/>
  </g>

  <!-- outer border -->
  <rect x="2" y="2" width="796" height="596" fill="none" stroke="#5A5A5A" stroke-width="4"/>
</svg>
