<svg width="800" height="400" viewBox="0 0 800 400" xmlns="http://www.w3.org/2000/svg">
  <defs>
    <linearGradient id="sky" x1="0" y1="0" x2="0" y2="1">
      <stop offset="0%" stop-color="#0a0a2e"/>
      <stop offset="30%" stop-color="#141452"/>
      <stop offset="60%" stop-color="#1e2466"/>
      <stop offset="100%" stop-color="#2d3a7a"/>
    </linearGradient>
    <radialGradient id="moonSurface" cx="40%" cy="40%">
      <stop offset="0%" stop-color="#FFFDE8"/>
      <stop offset="60%" stop-color="#F5F0D0"/>
      <stop offset="100%" stop-color="#E8DCA0"/>
    </radialGradient>
    <linearGradient id="fire" x1="0" y1="0" x2="0" y2="1">
      <stop offset="0%" stop-color="#FFE44D"/>
      <stop offset="50%" stop-color="#FF6B35"/>
      <stop offset="100%" stop-color="#FF2222" stop-opacity="0"/>
    </linearGradient>
  </defs>

  <rect width="800" height="400" fill="url(#sky)" rx="16"/>

  <!-- Stars -->
  <g fill="#FFF">
    <circle cx="45" cy="30" r="1.8" opacity="0.9"/>
    <circle cx="120" cy="65" r="1.2" opacity="0.6"/>
    <circle cx="200" cy="25" r="2" opacity="0.85"/>
    <circle cx="310" cy="50" r="1" opacity="0.5"/>
    <circle cx="400" cy="35" r="1.5" opacity="0.7"/>
    <circle cx="500" cy="60" r="2.2" opacity="0.9"/>
    <circle cx="580" cy="20" r="1" opacity="0.4"/>
    <circle cx="650" cy="55" r="1.8" opacity="0.8"/>
    <circle cx="720" cy="30" r="1.3" opacity="0.6"/>
    <circle cx="760" cy="70" r="2" opacity="0.75"/>
    <circle cx="80" cy="95" r="1" opacity="0.4"/>
    <circle cx="160" cy="85" r="1.5" opacity="0.7"/>
    <circle cx="250" cy="105" r="0.8" opacity="0.3"/>
    <circle cx="340" cy="80" r="1.2" opacity="0.5"/>
    <circle cx="460" cy="95" r="1.8" opacity="0.8"/>
    <circle cx="550" cy="90" r="1" opacity="0.4"/>
    <circle cx="670" cy="110" r="1.5" opacity="0.6"/>
    <circle cx="740" cy="85" r="1.2" opacity="0.5"/>
    <circle cx="20" cy="150" r="0.8" opacity="0.3"/>
    <circle cx="180" cy="140" r="1.2" opacity="0.5"/>
    <circle cx="350" cy="130" r="0.8" opacity="0.3"/>
    <circle cx="520" cy="145" r="1" opacity="0.4"/>
    <circle cx="700" cy="150" r="0.8" opacity="0.35"/>
  </g>

  <!-- Cross stars -->
  <g stroke="#FFF" stroke-width="1.2" opacity="0.6">
    <line x1="230" y1="48" x2="238" y2="56"/>
    <line x1="238" y1="48" x2="230" y2="56"/>
    <line x1="620" y1="40" x2="628" y2="48"/>
    <line x1="628" y1="40" x2="620" y2="48"/>
    <line x1="480" y1="128" x2="488" y2="136"/>
    <line x1="488" y1="128" x2="480" y2="136"/>
  </g>

  <!-- Moon -->
  <g transform="translate(620,90)">
    <circle cx="0" cy="0" r="48" fill="url(#moonSurface)" stroke="#C8B878" stroke-width="1.5"/>
    <rect x="-18" y="-22" width="12" height="9" rx="2" fill="#D8CCA0" opacity="0.5"/>
    <rect x="6" y="-12" width="8" height="7" rx="1.5" fill="#D8CCA0" opacity="0.4"/>
    <rect x="-8" y="6" width="14" height="9" rx="2" fill="#D8CCA0" opacity="0.35"/>
    <rect x="16" y="12" width="6" height="5" rx="1" fill="#D8CCA0" opacity="0.4"/>
    <rect x="-24" y="16" width="7" height="5" rx="1" fill="#D8CCA0" opacity="0.25"/>
  </g>

  <!-- Small planet -->
  <g transform="translate(105,130)">
    <circle cx="0" cy="0" r="16" fill="#8B5CF6" opacity="0.6"/>
    <ellipse cx="0" cy="2" rx="18" ry="4" fill="none" stroke="#A78BFA" stroke-width="0.8" opacity="0.4" transform="rotate(-15)"/>
  </g>

  <!-- Astronaut with Balloon -->
  <g transform="translate(340,190)">
    <!-- ===== BALLOON STRING ===== -->
    <path d="M 0,-70 Q -15,-45 -5,-15" fill="none" stroke="#CCCCCC" stroke-width="1.2" stroke-dasharray="4,3"/>

    <!-- ===== BALLOON ===== -->
    <ellipse cx="-2" cy="-82" rx="28" ry="34" fill="#FF6B6B" opacity="0.85"/>
    <ellipse cx="-2" cy="-82" rx="28" ry="34" fill="none" stroke="#DD4444" stroke-width="0.8"/>
    <!-- Balloon highlight -->
    <ellipse cx="-10" cy="-95" rx="8" ry="10" fill="#FFFFFF" opacity="0.15"/>
    <ellipse cx="-14" cy="-100" rx="3" ry="4" fill="#FFFFFF" opacity="0.2"/>
    <!-- Balloon knot -->
    <polygon points="-2,-48 -5,-44 1,-44" fill="#DD4444"/>

    <!-- ===== BACKPACK ===== -->
    <rect x="8" y="2" width="12" height="22" rx="3" fill="#A0A0A0" stroke="#808080" stroke-width="0.8"/>

    <!-- ===== BODY ===== -->
    <rect x="-11" y="-8" width="22" height="28" rx="6" fill="#F0F0F0" stroke="#C0C0C0" stroke-width="1"/>
    <!-- Belt -->
    <rect x="-11" y="0" width="22" height="3" rx="1" fill="#DD4444"/>
    <!-- Lower suit detail -->
    <rect x="-9" y="14" width="18" height="4" rx="2" fill="#D8D8D8"/>

    <!-- ===== LEGS ===== -->
    <!-- Left leg -->
    <path d="M -6,18 Q -14,36 -18,44" fill="none" stroke="#F0F0F0" stroke-width="9" stroke-linecap="round"/>
    <ellipse cx="-18" cy="47" rx="6" ry="3.5" fill="#909090" stroke="#707070" stroke-width="0.5"/>

    <!-- Right leg -->
    <path d="M 6,18 Q 14,36 18,44" fill="none" stroke="#F0F0F0" stroke-width="9" stroke-linecap="round"/>
    <ellipse cx="18" cy="47" rx="6" ry="3.5" fill="#909090" stroke="#707070" stroke-width="0.5"/>

    <!-- ===== ARMS ===== -->
    <!-- Left arm (reaching for balloon) -->
    <path d="M -9,2 Q -22,-8 -28,-20" fill="none" stroke="#F0F0F0" stroke-width="7" stroke-linecap="round"/>
    <circle cx="-29" cy="-22" r="4" fill="#B0B0B0"/>

    <!-- Right arm (waving) -->
    <path d="M 9,2 Q 24,-4 32,-8" fill="none" stroke="#F0F0F0" stroke-width="7" stroke-linecap="round"/>
    <circle cx="33" cy="-9" r="4" fill="#B0B0B0"/>

    <!-- ===== HELMET ===== -->
    <circle cx="0" cy="-18" r="14" fill="#F0F0F0" stroke="#C0C0C0" stroke-width="1"/>
    
    <!-- Visor -->
    <ellipse cx="0" cy="-17" rx="9" ry="8.5" fill="#4A90D9" stroke="#707070" stroke-width="0.8"/>
    <!-- Visor reflection -->
    <ellipse cx="-3" cy="-20" rx="4" ry="4.5" fill="#FFFFFF" opacity="0.2"/>
    <path d="M -7,-14 Q -4,-12 -1,-14" fill="none" stroke="#FFFFFF" stroke-width="0.6" opacity="0.2"/>

    <!-- Helmet rim -->
    <path d="M -12,-10 Q 0,-6 12,-10" fill="none" stroke="#C0C0C0" stroke-width="1.5"/>

    <!-- Antenna -->
    <line x1="10" y1="-27" x2="14" y2="-38" stroke="#B0B0B0" stroke-width="1"/>
    <circle cx="14" cy="-40" r="2.5" fill="#FF4444"/>
    <line x1="14" y1="-40" x2="14" y2="-48" stroke="#FF4444" stroke-width="0.5" opacity="0.5"/>

    <!-- ===== FLOATING EFFECT (small motion lines) ===== -->
    <path d="M -22,25 Q -18,23 -14,25" fill="none" stroke="#87CEEB" stroke-width="0.6" opacity="0.3"/>
    <path d="M 20,28 Q 16,26 12,28" fill="none" stroke="#87CEEB" stroke-width="0.6" opacity="0.3"/>
  </g>

  <!-- Title -->
  <text x="400" y="295" text-anchor="middle" font-family="'Courier New',monospace" font-size="34" font-weight="bold" fill="#00D2FF">BRIAN ATMOKO</text>

  <!-- Subtitle -->
  <text x="400" y="328" text-anchor="middle" font-family="'Courier New',monospace" font-size="15" fill="#87CEEB" letter-spacing="3">★ DARI ANGKASA KE INTI BUMI ★</text>

  <!-- Tagline -->
  <text x="400" y="358" text-anchor="middle" font-family="'Courier New',monospace" font-size="11" fill="#A0C0E0" opacity="0.7" letter-spacing="2">Embedded Systems  •  AI  •  Fullstack</text>

</svg>
