<svg width="800" height="400" viewBox="0 0 800 400" xmlns="http://www.w3.org/2000/svg">
  <defs>
    <linearGradient id="sky" x1="0" y1="0" x2="0" y2="1">
      <stop offset="0%" stop-color="#0a0a2e"/>
      <stop offset="30%" stop-color="#141452"/>
      <stop offset="60%" stop-color="#1e2466"/>
      <stop offset="100%" stop-color="#2d3a7a"/>
    </linearGradient>
    <radialGradient id="moonSurface" cx="40%" cy="40%">
      <stop offset="0%" stop-color="#FFFDE8"/>
      <stop offset="60%" stop-color="#F5F0D0"/>
      <stop offset="100%" stop-color="#E8DCA0"/>
    </radialGradient>
    <linearGradient id="fire" x1="0" y1="0" x2="0" y2="1">
      <stop offset="0%" stop-color="#FFE44D"/>
      <stop offset="50%" stop-color="#FF6B35"/>
      <stop offset="100%" stop-color="#FF2222" stop-opacity="0"/>
    </linearGradient>
  </defs>

  <rect width="800" height="400" fill="url(#sky)" rx="16"/>

  <!-- Stars -->
  <g fill="#FFF">
    <circle cx="45" cy="30" r="1.8" opacity="0.9"/>
    <circle cx="120" cy="65" r="1.2" opacity="0.6"/>
    <circle cx="200" cy="25" r="2" opacity="0.85"/>
    <circle cx="310" cy="50" r="1" opacity="0.5"/>
    <circle cx="400" cy="35" r="1.5" opacity="0.7"/>
    <circle cx="500" cy="60" r="2.2" opacity="0.9"/>
    <circle cx="580" cy="20" r="1" opacity="0.4"/>
    <circle cx="650" cy="55" r="1.8" opacity="0.8"/>
    <circle cx="720" cy="30" r="1.3" opacity="0.6"/>
    <circle cx="760" cy="70" r="2" opacity="0.75"/>
    <circle cx="80" cy="95" r="1" opacity="0.4"/>
    <circle cx="160" cy="85" r="1.5" opacity="0.7"/>
    <circle cx="250" cy="105" r="0.8" opacity="0.3"/>
    <circle cx="340" cy="80" r="1.2" opacity="0.5"/>
    <circle cx="460" cy="95" r="1.8" opacity="0.8"/>
    <circle cx="550" cy="90" r="1" opacity="0.4"/>
    <circle cx="670" cy="110" r="1.5" opacity="0.6"/>
    <circle cx="740" cy="85" r="1.2" opacity="0.5"/>
    <circle cx="20" cy="150" r="0.8" opacity="0.3"/>
    <circle cx="180" cy="140" r="1.2" opacity="0.5"/>
    <circle cx="350" cy="130" r="0.8" opacity="0.3"/>
    <circle cx="520" cy="145" r="1" opacity="0.4"/>
    <circle cx="700" cy="150" r="0.8" opacity="0.35"/>
  </g>

  <!-- Cross stars -->
  <g stroke="#FFF" stroke-width="1.2" opacity="0.6">
    <line x1="230" y1="48" x2="238" y2="56"/>
    <line x1="238" y1="48" x2="230" y2="56"/>
    <line x1="620" y1="40" x2="628" y2="48"/>
    <line x1="628" y1="40" x2="620" y2="48"/>
    <line x1="480" y1="128" x2="488" y2="136"/>
    <line x1="488" y1="128" x2="480" y2="136"/>
  </g>

  <!-- Moon -->
  <g transform="translate(620,90)">
    <circle cx="0" cy="0" r="48" fill="url(#moonSurface)" stroke="#C8B878" stroke-width="1.5"/>
    <rect x="-18" y="-22" width="12" height="9" rx="2" fill="#D8CCA0" opacity="0.5"/>
    <rect x="6" y="-12" width="8" height="7" rx="1.5" fill="#D8CCA0" opacity="0.4"/>
    <rect x="-8" y="6" width="14" height="9" rx="2" fill="#D8CCA0" opacity="0.35"/>
    <rect x="16" y="12" width="6" height="5" rx="1" fill="#D8CCA0" opacity="0.4"/>
    <rect x="-24" y="16" width="7" height="5" rx="1" fill="#D8CCA0" opacity="0.25"/>
  </g>

  <!-- Small planet -->
  <g transform="translate(105,130)">
    <circle cx="0" cy="0" r="16" fill="#8B5CF6" opacity="0.6"/>
    <ellipse cx="0" cy="2" rx="18" ry="4" fill="none" stroke="#A78BFA" stroke-width="0.8" opacity="0.4" transform="rotate(-15)"/>
  </g>

  <!-- Rocket -->
  <g transform="translate(340,160)">
    <!-- Flame -->
    <path d="M0,52 Q-10,70 -7,88 Q0,96 7,88 Q10,70 0,52" fill="url(#fire)" opacity="0.85"/>
    <path d="M0,52 Q-5,65 -3,78 Q0,84 3,78 Q5,65 0,52" fill="#FFE44D" opacity="0.5"/>

    <!-- Left fin -->
    <polygon points="-16,38 -26,52 -16,47" fill="#CC3333"/>
    <polygon points="-16,38 -26,52 -16,47" fill="none" stroke="#991111" stroke-width="0.8"/>

    <!-- Right fin -->
    <polygon points="16,38 26,52 16,47" fill="#CC3333"/>
    <polygon points="16,38 26,52 16,47" fill="none" stroke="#991111" stroke-width="0.8"/>

    <!-- Center fins -->
    <polygon points="0,42 0,54 -8,51" fill="#AA2222"/>
    <polygon points="0,42 0,54 8,51" fill="#AA2222"/>

    <!-- Body -->
    <rect x="-13" y="4" width="26" height="42" rx="3" fill="#E8E8E8"/>
    <rect x="-13" y="4" width="26" height="42" rx="3" fill="none" stroke="#AAA" stroke-width="0.8"/>

    <!-- Red bands -->
    <rect x="-13" y="33" width="26" height="5" fill="#DD4444"/>
    <rect x="-13" y="9" width="26" height="2.5" fill="#DD4444"/>

    <!-- Nose cone -->
    <polygon points="0,-28 -13,4 13,4" fill="#E8E8E8"/>
    <polygon points="0,-28 -13,4 13,4" fill="none" stroke="#AAA" stroke-width="0.8"/>
    <polygon points="0,-28 -13,4 13,4" fill="#FF4444" opacity="0.25"/>

    <!-- Window -->
    <circle cx="0" cy="17" r="5.5" fill="#4A90D9"/>
    <circle cx="0" cy="17" r="5.5" fill="none" stroke="#AAA" stroke-width="1.2"/>
    <circle cx="-1" cy="16" r="1.5" fill="#87CEEB" opacity="0.6"/>
  </g>

  <!-- Title -->
  <text x="400" y="295" text-anchor="middle" font-family="'Courier New',monospace" font-size="34" font-weight="bold" fill="#00D2FF">BRIAN ATMOKO</text>

  <!-- Subtitle -->
  <text x="400" y="328" text-anchor="middle" font-family="'Courier New',monospace" font-size="15" fill="#87CEEB" letter-spacing="3">★ DARI ANGKASA KE INTI BUMI ★</text>

  <!-- Tagline -->
  <text x="400" y="358" text-anchor="middle" font-family="'Courier New',monospace" font-size="11" fill="#A0C0E0" opacity="0.7" letter-spacing="2">Embedded Systems  •  AI  •  Fullstack</text>

</svg>
