<svg xmlns="http://www.w3.org/2000/svg" width="800" height="600" viewBox="0 0 800 600">
  <!-- ===== TRANSISI ===== -->
  <rect x="0" y="0"  width="800" height="16" fill="#5FB34A"/>
  <rect x="0" y="16" width="800" height="16" fill="#8B5A2B"/>

  <!-- ===== GUA ===== -->
  <rect x="0" y="32" width="800" height="188" fill="#23233A"/>
  <g fill="#2E2E40">
    <rect x="40"  y="60"  width="40" height="40"/>
    <rect x="120" y="100" width="40" height="40"/>
    <rect x="640" y="70"  width="40" height="40"/>
    <rect x="710" y="140" width="40" height="40"/>
    <rect x="200" y="60"  width="40" height="40"/>
    <rect x="540" y="120" width="40" height="40"/>
  </g>

  <!-- ores -->
  <g>
    <rect x="60" y="92"  width="12" height="12" fill="#1FB6D8"/><rect x="74" y="104" width="12" height="12" fill="#1FB6D8"/>
    <rect x="700" y="92" width="12" height="12" fill="#FCD34D"/><rect x="686" y="104" width="12" height="12" fill="#FCD34D"/>
    <rect x="60" y="150" width="12" height="12" fill="#4A8B3A"/><rect x="74" y="162" width="12" height="12" fill="#4A8B3A"/>
    <rect x="700" y="160" width="12" height="12" fill="#C51A4A"/><rect x="686" y="172" width="12" height="12" fill="#C51A4A"/>
    <rect x="120" y="150" width="12" height="12" fill="#B0B0B0"/>
  </g>

  <!-- torch -->
  <rect x="30" y="82" width="6" height="18" fill="#6E4420"/>
  <rect x="27" y="74" width="12" height="8" fill="#FF6F00"/>

  <!-- lava -->
  <rect x="0" y="202" width="800" height="18" fill="#FF6F00"/>
  <rect x="0" y="202" width="800" height="6"  fill="#FFD08A"/>

  <!-- Alex mining -->
  <g>
    <rect x="614" y="120" width="28" height="8"  fill="#D87F33"/>
    <rect x="638" y="122" width="6"  height="6"  fill="#D87F33"/>
    <rect x="614" y="128" width="28" height="14" fill="#D6A47B"/>
    <rect x="620" y="132" width="4"  height="4"  fill="#3F7F3F"/>
    <rect x="632" y="132" width="4"  height="4"  fill="#3F7F3F"/>
    <rect x="616" y="144" width="24" height="22" fill="#F2F4F7"/>
    <rect x="622" y="148" width="12" height="10" fill="#3F7F3F"/>
    <rect x="604" y="146" width="10" height="20" fill="#F2F4F7"/>
    <rect x="642" y="146" width="10" height="20" fill="#F2F4F7"/>
    <rect x="616" y="166" width="10" height="14" fill="#3F7F3F"/>
    <rect x="630" y="166" width="10" height="14" fill="#3F7F3F"/>
    <rect x="614" y="180" width="12" height="4"  fill="#5E3C1B"/>
    <rect x="630" y="180" width="12" height="4"  fill="#5E3C1B"/>
    <rect x="592" y="138" width="4"  height="26" fill="#6E4420"/>
    <rect x="586" y="134" width="16" height="8"  fill="#9AA7B5"/>
    <rect x="652" y="166" width="20" height="20" fill="#8A8A8A"/>
  </g>

  <!-- sign ZONA 4 -->
  <rect x="300" y="118" width="200" height="46" fill="#8B5A2B" stroke="#5E3C1B" stroke-width="4"/>
  <text x="400" y="138" text-anchor="middle" font-size="14" font-weight="bold" fill="#FCD34D" font-family="monospace">ZONA 4</text>
  <text x="400" y="156" text-anchor="middle" font-size="10" fill="#1FB6D8" font-family="monospace">BAWAH TANAH</text>

  <!-- ===== PANEL SYSTEM DESIGN ===== -->
  <rect x="0"   y="220" width="800" height="380" fill="#1C1C28"/>
  <rect x="4"   y="224" width="792" height="372" fill="#3A3A3A"/>
  <rect x="6"   y="226" width="788" height="368" fill="#2E2E42"/>
  <rect x="2"   y="222" width="796" height="376" fill="none" stroke="#5A5A5A" stroke-width="2"/>
  <rect x="8"   y="228" width="784" height="364" fill="none" stroke="#8A8A8A" stroke-width="2"/>

  <!-- header -->
  <rect x="30" y="244" width="36" height="36" fill="#9AA7B5"/>
  <rect x="36" y="252" width="24" height="10" fill="#1FB6D8"/>
  <rect x="44" y="236" width="4"  height="8"  fill="#9AA7B5"/>
  <rect x="42" y="232" width="8"  height="6"  fill="#FCD34D"/>
  <text x="78" y="260" font-size="22" font-weight="bold" fill="#FCD34D" font-family="monospace">SYSTEM DESIGN</text>
  <text x="78" y="278" font-size="10" fill="#1FB6D8" font-family="monospace">Architecture . Infra . Data . Deployment</text>
  <rect x="30" y="290" width="740" height="2" fill="#5A5A5A"/>

  <!-- Slot 1: Architecture -->
  <rect x="30"  y="306" width="360" height="68" fill="#23233A" stroke="#4A4A5A" stroke-width="2"/>
  <rect x="42"  y="322" width="40"  height="38" fill="#2E8FB8" stroke="#1E5A7A" stroke-width="2"/>
  <rect x="50"  y="330" width="24" height="22" fill="#FFFFFF"/>
  <rect x="56"  y="336" width="12" height="10" fill="#2E8FB8"/>
  <text x="92" y="330" font-size="13" font-weight="bold" fill="#FFFFFF" font-family="monospace">Architecture</text>
  <text x="92" y="348" font-size="10" fill="#A0C0E0" font-family="monospace">Event-driven  Microservices  Edge</text>

  <!-- Slot 2: Infrastructure -->
  <rect x="410" y="306" width="360" height="68" fill="#23233A" stroke="#4A4A5A" stroke-width="2"/>
  <rect x="422" y="322" width="40"  height="38" fill="#FF6F00" stroke="#B84A00" stroke-width="2"/>
  <rect x="430" y="330" width="24" height="22" fill="#FFFFFF"/>
  <rect x="438" y="338" width="8"  height="6"  fill="#FF6F00"/>
  <text x="472" y="330" font-size="13" font-weight="bold" fill="#FFFFFF" font-family="monospace">Infrastructure</text>
  <text x="472" y="348" font-size="10" fill="#A0C0E0" font-family="monospace">Kubernetes  Docker  MinIO  Ray</text>

  <!-- Slot 3: Data -->
  <rect x="30"  y="392" width="360" height="68" fill="#23233A" stroke="#4A4A5A" stroke-width="2"/>
  <rect x="42"  y="408" width="40"  height="38" fill="#5FB34A" stroke="#3A7A2A" stroke-width="2"/>
  <rect x="50"  y="416" width="24" height="22" fill="#FFFFFF"/>
  <rect x="56"  y="422" width="12" height="4" fill="#5FB34A"/>
  <rect x="56"  y="430" width="12" height="4" fill="#5FB34A"/>
  <text x="92" y="416" font-size="13" font-weight="bold" fill="#FFFFFF" font-family="monospace">Data &amp; Storage</text>
  <text x="92" y="434" font-size="10" fill="#A0C0E0" font-family="monospace">Stream processing  Data Lake  SQL/NoSQL</text>

  <!-- Slot 4: Observability -->
  <rect x="410" y="392" width="360" height="68" fill="#23233A" stroke="#4A4A5A" stroke-width="2"/>
  <rect x="422" y="408" width="40"  height="38" fill="#C51A4A" stroke="#8A0A2A" stroke-width="2"/>
  <rect x="430" y="416" width="8"  height="22" fill="#FFFFFF"/><rect x="440" y="416" width="8" height="8" fill="#FFFFFF"/>
  <rect x="440" y="428" width="12" height="4" fill="#C51A4A"/>
  <text x="472" y="416" font-size="13" font-weight="bold" fill="#FFFFFF" font-family="monospace">Observability</text>
  <text x="472" y="434" font-size="10" fill="#A0C0E0" font-family="monospace">Prometheus  Grafana  Logging</text>

  <!-- divider -->
  <rect x="30" y="476" width="740" height="2" fill="#5A5A5A"/>

  <!-- case study: MOKO-AI infra -->
  <rect x="30" y="492" width="740" height="96" fill="#23233A" stroke="#FCD34D" stroke-width="2"/>
  <rect x="28" y="490" width="744" height="100" fill="none" stroke="#8A8A8A" stroke-width="1" opacity="0.3"/>
  <rect x="42" y="504" width="40" height="40" fill="#1FB6D8" stroke="#0E5A7A" stroke-width="2"/>
  <rect x="48" y="512" width="28" height="10" fill="#FFFFFF"/>
  <rect x="56" y="496" width="4"  height="8"  fill="#1FB6D8"/>
  <rect x="54" y="492" width="8"  height="6"  fill="#9AA7B5"/>
  <text x="92" y="512" font-size="13" font-weight="bold" fill="#FCD34D" font-family="monospace">Case Study: MOKO-AI Infrastructure</text>
  <text x="92" y="530" font-size="10" fill="#A0C0E0" font-family="monospace">Klaster GPU terdistribusi  Pipeline CI/CD otomatis</text>
  <text x="92" y="548" font-size="10" fill="#A0C0E0" font-family="monospace">Stream data real-time  Observability end-to-end</text>

  <!-- creeper -->
  <g>
    <rect x="650" y="496" width="100" height="100" fill="#4A8B3A" stroke="#3A6E2C" stroke-width="2"/>
    <rect x="670" y="516" width="18" height="18" fill="#1C1C28"/>
    <rect x="712" y="516" width="18" height="18" fill="#1C1C28"/>
    <rect x="682" y="548" width="10" height="10" fill="#1C1C28"/>
    <rect x="702" y="548" width="10" height="10" fill="#1C1C28"/>
    <rect x="722" y="548" width="10" height="10" fill="#1C1C28"/>
    <rect x="692" y="568" width="20" height="10" fill="#1C1C28"/>
  </g>

  <rect x="2" y="2" width="796" height="596" fill="none" stroke="#5A5A5A" stroke-width="4"/>
</svg>
